<svg width="155" height="36" viewBox="0 0 155 36" fill="none" xmlns="http://www.w3.org/2000/svg">
<path d="M6.04903 22.6241L6.64345 18.673H18.3919L18.9863 22.6241H6.04903ZM12.4477 11.6449L8.77634 20.0716L8.88124 21.1905L5.66441 28.1836H0.0349655L12.4477 2.27415L24.8605 28.1836H19.1961L16.0492 21.4003L16.1191 20.1415L12.4477 11.6449ZM37.4808 18.3933C37.4808 17.321 37.2711 16.5051 36.8515 15.9457C36.4319 15.3862 35.7559 15.1065 34.8235 15.1065C34.1941 15.1065 33.6346 15.2464 33.1451 15.5261C32.6556 15.7825 32.2826 16.1555 32.0262 16.645C31.7698 17.1345 31.6416 17.7173 31.6416 18.3933V28.1836H27.0961V12.0995H31.6416V14.547C32.1311 13.6379 32.7722 12.9503 33.5647 12.4841C34.3806 11.9946 35.3596 11.7498 36.5018 11.7498C38.4133 11.7498 39.8352 12.2976 40.7676 13.3932C41.7 14.4655 42.1662 15.969 42.1662 17.9037V28.1836H37.4808V18.3933ZM49.8444 23.1835C49.8444 23.6497 49.961 24.0577 50.1941 24.4073C50.4272 24.7337 50.7419 24.9901 51.1382 25.1766C51.5577 25.3397 52.0123 25.4213 52.5018 25.4213C53.2011 25.4213 53.8305 25.2815 54.3899 25.0017C54.9494 24.6987 55.4039 24.2791 55.7536 23.743C56.1033 23.1835 56.2781 22.5192 56.2781 21.7499L56.8375 23.8479C56.8375 24.8735 56.5462 25.736 55.9634 26.4353C55.4039 27.1346 54.6697 27.6591 53.7606 28.0088C52.8748 28.3584 51.9424 28.5332 50.9633 28.5332C49.961 28.5332 49.0286 28.3351 48.1661 27.9388C47.3036 27.5426 46.6043 26.9715 46.0682 26.2255C45.5553 25.4563 45.2989 24.5239 45.2989 23.4283C45.2989 21.8665 45.8467 20.631 46.9423 19.7219C48.0379 18.8128 49.588 18.3583 51.5927 18.3583C52.6184 18.3583 53.5158 18.4632 54.285 18.673C55.0776 18.8828 55.7419 19.1392 56.2781 19.4422C56.8142 19.7452 57.1988 20.0366 57.4319 20.3164V22.4143C56.8026 21.9481 56.0916 21.5984 55.299 21.3653C54.5298 21.1322 53.7139 21.0157 52.8515 21.0157C52.1522 21.0157 51.581 21.1089 51.1382 21.2954C50.6953 21.4586 50.3689 21.7033 50.1591 22.0297C49.9493 22.3327 49.8444 22.7173 49.8444 23.1835ZM48.0962 16.645L46.4178 13.568C47.257 13.1251 48.2826 12.7055 49.4948 12.3093C50.7069 11.8897 52.0589 11.6799 53.5508 11.6799C54.9261 11.6799 56.1499 11.878 57.2222 12.2743C58.2944 12.6706 59.1336 13.2533 59.7397 14.0226C60.3457 14.7685 60.6488 15.6893 60.6488 16.7848V28.1836H56.2781V17.7289C56.2781 17.286 56.2082 16.913 56.0683 16.61C55.9284 16.2837 55.707 16.0156 55.4039 15.8058C55.1242 15.596 54.7862 15.4445 54.3899 15.3513C53.9937 15.258 53.5508 15.2114 53.0613 15.2114C52.3153 15.2114 51.6044 15.293 50.9284 15.4561C50.2524 15.6193 49.6696 15.8175 49.1801 16.0506C48.6906 16.2837 48.3293 16.4818 48.0962 16.645ZM64.8616 0.910494H69.4071V28.1836H64.8616V0.910494ZM89.191 12.0995L78.7014 35.876H74.0509L78.1069 26.5752L71.4285 12.0995H76.4636L81.6385 24.8968L79.4007 24.8269L84.4707 12.0995H89.191ZM89.1593 12.0995H99.0895V15.9107H89.1593V12.0995ZM91.9216 6.50498H96.2923V28.1836H91.9216V6.50498ZM101.29 5.8756C101.29 5.12967 101.559 4.5236 102.095 4.05739C102.631 3.56787 103.272 3.32311 104.018 3.32311C104.764 3.32311 105.393 3.56787 105.906 4.05739C106.442 4.5236 106.71 5.12967 106.71 5.8756C106.71 6.59822 106.442 7.20429 105.906 7.6938C105.393 8.18332 104.764 8.42808 104.018 8.42808C103.272 8.42808 102.631 8.18332 102.095 7.6938C101.559 7.20429 101.29 6.59822 101.29 5.8756ZM101.78 12.0995H106.186V28.1836H101.78V12.0995ZM120.783 12.0995H125.783L119.839 19.8968L126.133 28.1836H121.133L117.496 23.0786L113.93 28.1836H108.755L115.119 19.8968L109.105 12.0995H114.28L117.496 16.7499L120.783 12.0995ZM128.163 5.8756C128.163 5.12967 128.431 4.5236 128.968 4.05739C129.504 3.56787 130.145 3.32311 130.891 3.32311C131.637 3.32311 132.266 3.56787 132.779 4.05739C133.315 4.5236 133.583 5.12967 133.583 5.8756C133.583 6.59822 133.315 7.20429 132.779 7.6938C132.266 8.18332 131.637 8.42808 130.891 8.42808C130.145 8.42808 129.504 8.18332 128.968 7.6938C128.431 7.20429 128.163 6.59822 128.163 5.8756ZM128.653 12.0995H133.059V28.1836H128.653V12.0995ZM136.782 20.1415C136.782 18.4632 137.166 16.9946 137.936 15.7359C138.728 14.4771 139.789 13.4981 141.118 12.7988C142.47 12.0995 143.996 11.7498 145.698 11.7498C147.4 11.7498 148.915 12.0995 150.244 12.7988C151.596 13.4981 152.656 14.4771 153.425 15.7359C154.218 16.9946 154.614 18.4632 154.614 20.1415C154.614 21.7966 154.218 23.2651 153.425 24.5472C152.656 25.8059 151.596 26.785 150.244 27.4843C148.915 28.1836 147.4 28.5332 145.698 28.5332C143.996 28.5332 142.47 28.1836 141.118 27.4843C139.789 26.785 138.728 25.8059 137.936 24.5472C137.166 23.2651 136.782 21.7966 136.782 20.1415ZM141.397 20.1415C141.397 21.0506 141.584 21.8548 141.957 22.5541C142.353 23.2301 142.877 23.7663 143.53 24.1626C144.183 24.5355 144.905 24.722 145.698 24.722C146.491 24.722 147.213 24.5355 147.866 24.1626C148.519 23.7663 149.031 23.2301 149.404 22.5541C149.801 21.8548 149.999 21.0506 149.999 20.1415C149.999 19.2324 149.801 18.4282 149.404 17.7289C149.031 17.0296 148.519 16.4935 147.866 16.1205C147.213 15.7475 146.491 15.561 145.698 15.561C144.905 15.561 144.183 15.7475 143.53 16.1205C142.877 16.4935 142.353 17.0296 141.957 17.7289C141.584 18.4282 141.397 19.2324 141.397 20.1415Z" fill="#006BD7"/>
</svg>
