<svg width="1918" height="6305" viewBox="0 0 1918 6305" fill="none" xmlns="http://www.w3.org/2000/svg">
<g clip-path="url(#clip0_1010_6192)">
<rect width="1918" height="6305" fill="white"/>
<ellipse cx="1899.5" cy="4891" rx="618.5" ry="619" fill="#F5F5F5"/>
<ellipse cx="62.5" cy="5600" rx="397.5" ry="398" fill="#F5F5F5"/>
<circle cx="1490.5" cy="370.5" r="629.5" fill="#006BD7"/>
<circle cx="153.5" cy="1470.5" r="465.5" fill="#F5F5F5"/>
<circle cx="1682" cy="2340" r="377" fill="#F5F5F5"/>
<circle cx="161.5" cy="3311.5" r="505.5" fill="#F5F5F5"/>
<path d="M835.571 6269.26C835.093 6269.26 834.664 6269.34 834.286 6269.52C833.912 6269.69 833.596 6269.94 833.336 6270.27C833.076 6270.59 832.878 6270.99 832.741 6271.45C832.604 6271.91 832.536 6272.43 832.536 6273.01C832.536 6273.78 832.646 6274.45 832.864 6275.01C833.083 6275.57 833.416 6276 833.862 6276.3C834.309 6276.59 834.874 6276.74 835.558 6276.74C835.981 6276.74 836.394 6276.7 836.795 6276.62C837.196 6276.54 837.611 6276.43 838.039 6276.28V6277.68C837.633 6277.84 837.223 6277.95 836.809 6278.03C836.394 6278.1 835.915 6278.14 835.373 6278.14C834.352 6278.14 833.505 6277.92 832.83 6277.5C832.16 6277.08 831.659 6276.48 831.326 6275.71C830.998 6274.94 830.834 6274.04 830.834 6273C830.834 6272.25 830.939 6271.55 831.148 6270.92C831.358 6270.3 831.663 6269.75 832.064 6269.3C832.465 6268.84 832.96 6268.48 833.548 6268.24C834.14 6267.99 834.817 6267.86 835.578 6267.86C836.079 6267.86 836.572 6267.92 837.055 6268.03C837.542 6268.14 837.993 6268.3 838.408 6268.5L837.834 6269.86C837.488 6269.69 837.125 6269.55 836.747 6269.43C836.369 6269.32 835.977 6269.26 835.571 6269.26ZM846.721 6274.2C846.721 6274.83 846.639 6275.39 846.475 6275.87C846.311 6276.36 846.071 6276.77 845.757 6277.11C845.442 6277.44 845.064 6277.7 844.622 6277.88C844.18 6278.05 843.681 6278.14 843.125 6278.14C842.605 6278.14 842.129 6278.05 841.696 6277.88C841.263 6277.7 840.887 6277.44 840.568 6277.11C840.254 6276.77 840.01 6276.36 839.837 6275.87C839.664 6275.39 839.577 6274.83 839.577 6274.2C839.577 6273.37 839.721 6272.66 840.008 6272.08C840.299 6271.5 840.714 6271.05 841.252 6270.75C841.79 6270.44 842.43 6270.29 843.173 6270.29C843.87 6270.29 844.485 6270.44 845.019 6270.75C845.552 6271.05 845.969 6271.5 846.27 6272.08C846.57 6272.66 846.721 6273.37 846.721 6274.2ZM841.231 6274.2C841.231 6274.75 841.298 6275.22 841.43 6275.61C841.566 6276.01 841.776 6276.31 842.059 6276.52C842.341 6276.72 842.706 6276.82 843.152 6276.82C843.599 6276.82 843.964 6276.72 844.246 6276.52C844.529 6276.31 844.736 6276.01 844.868 6275.61C845 6275.22 845.066 6274.75 845.066 6274.2C845.066 6273.65 845 6273.18 844.868 6272.8C844.736 6272.41 844.529 6272.12 844.246 6271.92C843.964 6271.71 843.597 6271.61 843.146 6271.61C842.48 6271.61 841.995 6271.83 841.689 6272.28C841.384 6272.72 841.231 6273.37 841.231 6274.2ZM852.449 6270.29C853.347 6270.29 854.067 6270.62 854.609 6271.27C855.156 6271.93 855.43 6272.9 855.43 6274.2C855.43 6275.06 855.302 6275.78 855.047 6276.37C854.796 6276.95 854.443 6277.39 853.987 6277.69C853.536 6277.99 853.01 6278.14 852.408 6278.14C852.025 6278.14 851.693 6278.09 851.41 6277.99C851.128 6277.89 850.886 6277.76 850.686 6277.6C850.485 6277.43 850.316 6277.25 850.18 6277.06H850.084C850.107 6277.25 850.127 6277.45 850.146 6277.67C850.168 6277.89 850.18 6278.09 850.18 6278.27V6281.36H848.566V6270.43H849.879L850.104 6271.48H850.18C850.321 6271.26 850.492 6271.07 850.692 6270.88C850.897 6270.7 851.144 6270.56 851.431 6270.45C851.722 6270.34 852.062 6270.29 852.449 6270.29ZM852.019 6271.6C851.576 6271.6 851.221 6271.69 850.952 6271.87C850.688 6272.04 850.494 6272.3 850.371 6272.65C850.253 6273.01 850.189 6273.44 850.18 6273.97V6274.2C850.18 6274.76 850.237 6275.24 850.351 6275.63C850.469 6276.02 850.663 6276.31 850.932 6276.52C851.205 6276.72 851.574 6276.82 852.039 6276.82C852.431 6276.82 852.755 6276.71 853.01 6276.5C853.27 6276.28 853.463 6275.98 853.591 6275.58C853.718 6275.18 853.782 6274.72 853.782 6274.18C853.782 6273.36 853.636 6272.73 853.345 6272.28C853.058 6271.83 852.616 6271.6 852.019 6271.6ZM856.147 6270.43H857.897L859.449 6274.75C859.518 6274.95 859.579 6275.14 859.634 6275.33C859.693 6275.52 859.743 6275.71 859.784 6275.89C859.83 6276.07 859.866 6276.25 859.894 6276.43H859.935C859.98 6276.2 860.044 6275.93 860.126 6275.64C860.213 6275.35 860.308 6275.05 860.413 6274.75L861.903 6270.43H863.633L860.386 6279.04C860.199 6279.53 859.969 6279.95 859.695 6280.3C859.426 6280.65 859.107 6280.91 858.738 6281.09C858.369 6281.27 857.948 6281.36 857.474 6281.36C857.246 6281.36 857.048 6281.35 856.879 6281.32C856.71 6281.3 856.567 6281.27 856.448 6281.25V6279.96C856.544 6279.98 856.665 6280.01 856.811 6280.02C856.956 6280.04 857.107 6280.05 857.262 6280.05C857.549 6280.05 857.797 6279.99 858.007 6279.88C858.216 6279.77 858.394 6279.6 858.54 6279.39C858.686 6279.19 858.807 6278.95 858.902 6278.69L859.169 6277.98L856.147 6270.43ZM868.616 6270.29C868.744 6270.29 868.883 6270.3 869.033 6270.31C869.184 6270.32 869.313 6270.34 869.423 6270.36L869.272 6271.87C869.177 6271.84 869.058 6271.82 868.917 6271.81C868.78 6271.79 868.657 6271.79 868.548 6271.79C868.261 6271.79 867.987 6271.83 867.728 6271.93C867.468 6272.02 867.238 6272.16 867.037 6272.35C866.837 6272.54 866.679 6272.78 866.565 6273.06C866.451 6273.34 866.395 6273.67 866.395 6274.04V6278H864.781V6270.43H866.039L866.258 6271.77H866.333C866.483 6271.5 866.67 6271.25 866.894 6271.03C867.117 6270.8 867.372 6270.63 867.659 6270.49C867.951 6270.36 868.27 6270.29 868.616 6270.29ZM872.431 6270.43V6278H870.824V6270.43H872.431ZM871.638 6267.53C871.884 6267.53 872.096 6267.6 872.273 6267.73C872.456 6267.86 872.547 6268.09 872.547 6268.42C872.547 6268.74 872.456 6268.96 872.273 6269.1C872.096 6269.23 871.884 6269.3 871.638 6269.3C871.382 6269.3 871.166 6269.23 870.988 6269.1C870.815 6268.96 870.729 6268.74 870.729 6268.42C870.729 6268.09 870.815 6267.86 870.988 6267.73C871.166 6267.6 871.382 6267.53 871.638 6267.53ZM876.895 6281.36C875.869 6281.36 875.083 6281.18 874.536 6280.81C873.989 6280.44 873.716 6279.92 873.716 6279.26C873.716 6278.79 873.862 6278.4 874.153 6278.08C874.445 6277.76 874.862 6277.54 875.404 6277.41C875.199 6277.32 875.021 6277.18 874.871 6276.99C874.725 6276.79 874.652 6276.58 874.652 6276.34C874.652 6276.06 874.732 6275.81 874.892 6275.61C875.051 6275.41 875.29 6275.22 875.609 6275.03C875.213 6274.86 874.894 6274.59 874.652 6274.21C874.415 6273.83 874.297 6273.38 874.297 6272.87C874.297 6272.32 874.413 6271.85 874.646 6271.47C874.878 6271.08 875.217 6270.79 875.664 6270.59C876.111 6270.38 876.651 6270.28 877.284 6270.28C877.421 6270.28 877.569 6270.29 877.729 6270.31C877.893 6270.32 878.043 6270.34 878.18 6270.36C878.321 6270.38 878.428 6270.4 878.501 6270.43H881.119V6271.32L879.834 6271.56C879.957 6271.73 880.055 6271.93 880.128 6272.16C880.201 6272.37 880.237 6272.61 880.237 6272.87C880.237 6273.66 879.966 6274.27 879.424 6274.73C878.886 6275.17 878.143 6275.4 877.195 6275.4C876.967 6275.39 876.746 6275.37 876.532 6275.34C876.368 6275.44 876.243 6275.55 876.156 6275.68C876.07 6275.79 876.026 6275.93 876.026 6276.08C876.026 6276.2 876.07 6276.3 876.156 6276.38C876.243 6276.45 876.37 6276.51 876.539 6276.54C876.712 6276.58 876.922 6276.6 877.168 6276.6H878.474C879.303 6276.6 879.937 6276.77 880.374 6277.12C880.812 6277.48 881.03 6277.99 881.03 6278.67C881.03 6279.53 880.675 6280.19 879.964 6280.66C879.253 6281.13 878.23 6281.36 876.895 6281.36ZM876.956 6280.24C877.517 6280.24 877.988 6280.18 878.371 6280.07C878.754 6279.96 879.043 6279.8 879.239 6279.6C879.435 6279.4 879.533 6279.16 879.533 6278.88C879.533 6278.64 879.472 6278.45 879.349 6278.31C879.226 6278.18 879.041 6278.09 878.795 6278.04C878.549 6277.99 878.243 6277.97 877.879 6277.97H876.689C876.393 6277.97 876.131 6278.01 875.903 6278.1C875.675 6278.2 875.498 6278.33 875.37 6278.51C875.247 6278.69 875.186 6278.9 875.186 6279.16C875.186 6279.5 875.338 6279.77 875.644 6279.96C875.953 6280.14 876.391 6280.24 876.956 6280.24ZM877.271 6274.34C877.74 6274.34 878.089 6274.22 878.316 6273.96C878.544 6273.7 878.658 6273.34 878.658 6272.87C878.658 6272.36 878.54 6271.97 878.303 6271.72C878.07 6271.46 877.724 6271.33 877.264 6271.33C876.812 6271.33 876.468 6271.46 876.231 6271.72C875.999 6271.98 875.883 6272.37 875.883 6272.88C875.883 6273.34 875.999 6273.7 876.231 6273.96C876.468 6274.22 876.815 6274.34 877.271 6274.34ZM884.106 6267.36V6270.04C884.106 6270.31 884.097 6270.59 884.079 6270.85C884.065 6271.11 884.049 6271.32 884.031 6271.46H884.12C884.28 6271.2 884.476 6270.98 884.708 6270.82C884.94 6270.64 885.2 6270.51 885.487 6270.43C885.779 6270.34 886.089 6270.3 886.417 6270.3C886.996 6270.3 887.488 6270.39 887.894 6270.59C888.299 6270.78 888.609 6271.08 888.823 6271.49C889.042 6271.89 889.151 6272.42 889.151 6273.06V6278H887.545V6273.37C887.545 6272.78 887.424 6272.34 887.183 6272.05C886.941 6271.75 886.567 6271.6 886.062 6271.6C885.574 6271.6 885.187 6271.7 884.899 6271.91C884.617 6272.11 884.414 6272.41 884.291 6272.8C884.168 6273.2 884.106 6273.68 884.106 6274.24V6278H882.5V6267.36H884.106ZM894.217 6276.84C894.426 6276.84 894.634 6276.82 894.839 6276.78C895.044 6276.74 895.231 6276.69 895.399 6276.64V6277.86C895.222 6277.93 894.992 6278 894.709 6278.05C894.426 6278.11 894.132 6278.14 893.827 6278.14C893.399 6278.14 893.014 6278.07 892.672 6277.92C892.33 6277.78 892.059 6277.53 891.858 6277.18C891.658 6276.83 891.558 6276.34 891.558 6275.72V6271.66H890.525V6270.94L891.633 6270.37L892.159 6268.75H893.171V6270.43H895.338V6271.66H893.171V6275.7C893.171 6276.09 893.267 6276.37 893.458 6276.56C893.649 6276.74 893.902 6276.84 894.217 6276.84ZM905.25 6278.14C904.507 6278.14 903.821 6278.01 903.192 6277.75C902.568 6277.5 902.023 6277.14 901.559 6276.68C901.098 6276.22 900.741 6275.68 900.485 6275.05C900.235 6274.42 900.109 6273.74 900.109 6273C900.109 6272.27 900.237 6271.6 900.492 6270.97C900.752 6270.35 901.114 6269.8 901.579 6269.34C902.044 6268.87 902.589 6268.51 903.213 6268.25C903.837 6267.99 904.516 6267.86 905.25 6267.86C905.965 6267.86 906.633 6267.99 907.253 6268.25C907.877 6268.5 908.424 6268.86 908.894 6269.33C909.363 6269.79 909.73 6270.33 909.994 6270.95C910.258 6271.58 910.391 6272.26 910.391 6273C910.391 6273.74 910.263 6274.42 910.008 6275.05C909.757 6275.68 909.399 6276.22 908.935 6276.68C908.474 6277.14 907.93 6277.5 907.301 6277.75C906.676 6278.01 905.993 6278.14 905.25 6278.14ZM905.469 6276.17C904.53 6276.17 903.826 6275.88 903.356 6275.3C902.892 6274.72 902.659 6273.96 902.659 6273C902.659 6272.39 902.769 6271.84 902.987 6271.37C903.211 6270.9 903.534 6270.52 903.958 6270.25C904.386 6269.98 904.908 6269.84 905.523 6269.84C905.815 6269.84 906.109 6269.88 906.405 6269.95C906.706 6270.03 906.986 6270.13 907.246 6270.26L906.85 6271.13C906.622 6271.01 906.396 6270.92 906.173 6270.86C905.954 6270.79 905.742 6270.76 905.537 6270.76C904.972 6270.76 904.532 6270.96 904.218 6271.36C903.908 6271.76 903.753 6272.31 903.753 6273C903.753 6273.72 903.892 6274.28 904.17 6274.66C904.448 6275.05 904.897 6275.25 905.517 6275.25C905.74 6275.25 905.984 6275.22 906.248 6275.16C906.512 6275.1 906.761 6275.02 906.993 6274.92V6275.83C906.77 6275.93 906.54 6276.01 906.303 6276.07C906.07 6276.14 905.792 6276.17 905.469 6276.17ZM905.25 6277.34C905.842 6277.34 906.396 6277.23 906.911 6277.02C907.426 6276.81 907.88 6276.51 908.271 6276.12C908.663 6275.73 908.969 6275.27 909.188 6274.74C909.411 6274.21 909.522 6273.63 909.522 6273C909.522 6272.41 909.415 6271.85 909.201 6271.32C908.992 6270.8 908.693 6270.33 908.306 6269.93C907.923 6269.53 907.472 6269.22 906.952 6269C906.433 6268.77 905.865 6268.66 905.25 6268.66C904.635 6268.66 904.065 6268.76 903.541 6268.98C903.021 6269.19 902.568 6269.49 902.181 6269.89C901.793 6270.27 901.493 6270.73 901.278 6271.26C901.069 6271.79 900.964 6272.37 900.964 6273C900.964 6273.62 901.069 6274.19 901.278 6274.72C901.488 6275.24 901.784 6275.7 902.167 6276.09C902.55 6276.48 903.003 6276.79 903.527 6277.01C904.051 6277.23 904.626 6277.34 905.25 6277.34ZM915.203 6274.92V6273.56H918.73V6274.92H915.203ZM930.365 6278L929.388 6275.22H925.566L924.589 6278H922.859L926.578 6267.96H928.396L932.108 6278H930.365ZM928.964 6273.82L928.014 6271.08C927.977 6270.96 927.925 6270.8 927.856 6270.58C927.788 6270.36 927.72 6270.14 927.651 6269.92C927.583 6269.69 927.526 6269.5 927.48 6269.35C927.435 6269.53 927.378 6269.74 927.31 6269.97C927.246 6270.2 927.182 6270.42 927.118 6270.62C927.059 6270.82 927.013 6270.97 926.981 6271.08L926.024 6273.82H928.964ZM934.877 6278H933.264V6267.36H934.877V6278ZM938.787 6278H937.174V6267.36H938.787V6278ZM948.556 6270.29C948.683 6270.29 948.822 6270.3 948.973 6270.31C949.123 6270.32 949.253 6270.34 949.362 6270.36L949.212 6271.87C949.116 6271.84 948.998 6271.82 948.856 6271.81C948.72 6271.79 948.597 6271.79 948.487 6271.79C948.2 6271.79 947.927 6271.83 947.667 6271.93C947.407 6272.02 947.177 6272.16 946.977 6272.35C946.776 6272.54 946.619 6272.78 946.505 6273.06C946.391 6273.34 946.334 6273.67 946.334 6274.04V6278H944.721V6270.43H945.979L946.197 6271.77H946.272C946.423 6271.5 946.61 6271.25 946.833 6271.03C947.056 6270.8 947.312 6270.63 947.599 6270.49C947.89 6270.36 948.209 6270.29 948.556 6270.29ZM952.37 6270.43V6278H950.764V6270.43H952.37ZM951.577 6267.53C951.823 6267.53 952.035 6267.6 952.213 6267.73C952.395 6267.86 952.486 6268.09 952.486 6268.42C952.486 6268.74 952.395 6268.96 952.213 6269.1C952.035 6269.23 951.823 6269.3 951.577 6269.3C951.322 6269.3 951.105 6269.23 950.928 6269.1C950.755 6268.96 950.668 6268.74 950.668 6268.42C950.668 6268.09 950.755 6267.86 950.928 6267.73C951.105 6267.6 951.322 6267.53 951.577 6267.53ZM956.834 6281.36C955.809 6281.36 955.022 6281.18 954.476 6280.81C953.929 6280.44 953.655 6279.92 953.655 6279.26C953.655 6278.79 953.801 6278.4 954.093 6278.08C954.384 6277.76 954.801 6277.54 955.344 6277.41C955.139 6277.32 954.961 6277.18 954.811 6276.99C954.665 6276.79 954.592 6276.58 954.592 6276.34C954.592 6276.06 954.672 6275.81 954.831 6275.61C954.991 6275.41 955.23 6275.22 955.549 6275.03C955.152 6274.86 954.833 6274.59 954.592 6274.21C954.355 6273.83 954.236 6273.38 954.236 6272.87C954.236 6272.32 954.353 6271.85 954.585 6271.47C954.817 6271.08 955.157 6270.79 955.604 6270.59C956.05 6270.38 956.59 6270.28 957.224 6270.28C957.36 6270.28 957.508 6270.29 957.668 6270.31C957.832 6270.32 957.982 6270.34 958.119 6270.36C958.26 6270.38 958.368 6270.4 958.44 6270.43H961.059V6271.32L959.773 6271.56C959.896 6271.73 959.994 6271.93 960.067 6272.16C960.14 6272.37 960.177 6272.61 960.177 6272.87C960.177 6273.66 959.906 6274.27 959.363 6274.73C958.826 6275.17 958.083 6275.4 957.135 6275.4C956.907 6275.39 956.686 6275.37 956.472 6275.34C956.308 6275.44 956.182 6275.55 956.096 6275.68C956.009 6275.79 955.966 6275.93 955.966 6276.08C955.966 6276.2 956.009 6276.3 956.096 6276.38C956.182 6276.45 956.31 6276.51 956.479 6276.54C956.652 6276.58 956.861 6276.6 957.107 6276.6H958.413C959.243 6276.6 959.876 6276.77 960.313 6277.12C960.751 6277.48 960.97 6277.99 960.97 6278.67C960.97 6279.53 960.614 6280.19 959.903 6280.66C959.192 6281.13 958.169 6281.36 956.834 6281.36ZM956.896 6280.24C957.456 6280.24 957.928 6280.18 958.311 6280.07C958.693 6279.96 958.983 6279.8 959.179 6279.6C959.375 6279.4 959.473 6279.16 959.473 6278.88C959.473 6278.64 959.411 6278.45 959.288 6278.31C959.165 6278.18 958.98 6278.09 958.734 6278.04C958.488 6277.99 958.183 6277.97 957.818 6277.97H956.629C956.333 6277.97 956.071 6278.01 955.843 6278.1C955.615 6278.2 955.437 6278.33 955.31 6278.51C955.187 6278.69 955.125 6278.9 955.125 6279.16C955.125 6279.5 955.278 6279.77 955.583 6279.96C955.893 6280.14 956.33 6280.24 956.896 6280.24ZM957.21 6274.34C957.679 6274.34 958.028 6274.22 958.256 6273.96C958.484 6273.7 958.598 6273.34 958.598 6272.87C958.598 6272.36 958.479 6271.97 958.242 6271.72C958.01 6271.46 957.663 6271.33 957.203 6271.33C956.752 6271.33 956.408 6271.46 956.171 6271.72C955.938 6271.98 955.822 6272.37 955.822 6272.88C955.822 6273.34 955.938 6273.7 956.171 6273.96C956.408 6274.22 956.754 6274.34 957.21 6274.34ZM964.046 6267.36V6270.04C964.046 6270.31 964.037 6270.59 964.019 6270.85C964.005 6271.11 963.989 6271.32 963.971 6271.46H964.06C964.219 6271.2 964.415 6270.98 964.647 6270.82C964.88 6270.64 965.14 6270.51 965.427 6270.43C965.718 6270.34 966.028 6270.3 966.356 6270.3C966.935 6270.3 967.427 6270.39 967.833 6270.59C968.239 6270.78 968.549 6271.08 968.763 6271.49C968.981 6271.89 969.091 6272.42 969.091 6273.06V6278H967.484V6273.37C967.484 6272.78 967.364 6272.34 967.122 6272.05C966.881 6271.75 966.507 6271.6 966.001 6271.6C965.513 6271.6 965.126 6271.7 964.839 6271.91C964.556 6272.11 964.354 6272.41 964.23 6272.8C964.107 6273.2 964.046 6273.68 964.046 6274.24V6278H962.439V6267.36H964.046ZM974.156 6276.84C974.366 6276.84 974.573 6276.82 974.778 6276.78C974.983 6276.74 975.17 6276.69 975.339 6276.64V6277.86C975.161 6277.93 974.931 6278 974.648 6278.05C974.366 6278.11 974.072 6278.14 973.767 6278.14C973.338 6278.14 972.953 6278.07 972.611 6277.92C972.27 6277.78 971.998 6277.53 971.798 6277.18C971.597 6276.83 971.497 6276.34 971.497 6275.72V6271.66H970.465V6270.94L971.572 6270.37L972.099 6268.75H973.11V6270.43H975.277V6271.66H973.11V6275.7C973.11 6276.09 973.206 6276.37 973.397 6276.56C973.589 6276.74 973.842 6276.84 974.156 6276.84ZM984.349 6270.29C984.476 6270.29 984.615 6270.3 984.766 6270.31C984.916 6270.32 985.046 6270.34 985.155 6270.36L985.005 6271.87C984.909 6271.84 984.791 6271.82 984.649 6271.81C984.513 6271.79 984.39 6271.79 984.28 6271.79C983.993 6271.79 983.72 6271.83 983.46 6271.93C983.2 6272.02 982.97 6272.16 982.77 6272.35C982.569 6272.54 982.412 6272.78 982.298 6273.06C982.184 6273.34 982.127 6273.67 982.127 6274.04V6278H980.514V6270.43H981.771L981.99 6271.77H982.065C982.216 6271.5 982.403 6271.25 982.626 6271.03C982.849 6270.8 983.104 6270.63 983.392 6270.49C983.683 6270.36 984.002 6270.29 984.349 6270.29ZM989.571 6270.29C990.246 6270.29 990.825 6270.43 991.308 6270.71C991.791 6270.98 992.162 6271.38 992.422 6271.89C992.682 6272.4 992.812 6273.01 992.812 6273.72V6274.58H987.76C987.778 6275.32 987.974 6275.88 988.348 6276.28C988.726 6276.67 989.255 6276.87 989.934 6276.87C990.417 6276.87 990.85 6276.83 991.232 6276.74C991.62 6276.64 992.019 6276.5 992.429 6276.32V6277.62C992.05 6277.8 991.665 6277.93 991.273 6278.01C990.882 6278.1 990.412 6278.14 989.865 6278.14C989.122 6278.14 988.468 6277.99 987.903 6277.71C987.343 6277.41 986.903 6276.98 986.584 6276.41C986.27 6275.83 986.112 6275.12 986.112 6274.27C986.112 6273.42 986.256 6272.7 986.543 6272.11C986.83 6271.51 987.233 6271.06 987.753 6270.75C988.272 6270.44 988.879 6270.29 989.571 6270.29ZM989.571 6271.5C989.065 6271.5 988.655 6271.66 988.341 6271.99C988.031 6272.32 987.849 6272.8 987.794 6273.43H991.239C991.235 6273.06 991.171 6272.72 991.048 6272.43C990.929 6272.14 990.747 6271.91 990.501 6271.75C990.259 6271.58 989.95 6271.5 989.571 6271.5ZM999.709 6275.84C999.709 6276.34 999.588 6276.76 999.347 6277.1C999.105 6277.44 998.752 6277.7 998.287 6277.88C997.827 6278.05 997.262 6278.14 996.592 6278.14C996.063 6278.14 995.607 6278.1 995.225 6278.02C994.846 6277.95 994.489 6277.83 994.151 6277.68V6276.29C994.511 6276.46 994.915 6276.61 995.361 6276.73C995.812 6276.85 996.239 6276.91 996.64 6276.91C997.168 6276.91 997.549 6276.83 997.781 6276.67C998.014 6276.5 998.13 6276.28 998.13 6276C998.13 6275.83 998.082 6275.69 997.986 6275.56C997.895 6275.43 997.722 6275.29 997.467 6275.16C997.216 6275.01 996.847 6274.85 996.359 6274.65C995.881 6274.46 995.478 6274.27 995.149 6274.08C994.821 6273.88 994.573 6273.65 994.404 6273.39C994.236 6273.11 994.151 6272.76 994.151 6272.34C994.151 6271.67 994.416 6271.16 994.944 6270.82C995.478 6270.46 996.182 6270.29 997.057 6270.29C997.521 6270.29 997.959 6270.34 998.369 6270.43C998.784 6270.52 999.189 6270.66 999.586 6270.84L999.08 6272.05C998.738 6271.9 998.394 6271.77 998.048 6271.68C997.706 6271.58 997.357 6271.53 997.002 6271.53C996.587 6271.53 996.271 6271.59 996.052 6271.72C995.838 6271.85 995.73 6272.03 995.73 6272.26C995.73 6272.44 995.783 6272.59 995.888 6272.72C995.993 6272.84 996.173 6272.96 996.428 6273.08C996.688 6273.21 997.048 6273.36 997.508 6273.54C997.959 6273.72 998.349 6273.9 998.677 6274.09C999.009 6274.28 999.265 6274.51 999.442 6274.78C999.62 6275.05 999.709 6275.41 999.709 6275.84ZM1004.46 6270.29C1005.13 6270.29 1005.71 6270.43 1006.2 6270.71C1006.68 6270.98 1007.05 6271.38 1007.31 6271.89C1007.57 6272.4 1007.7 6273.01 1007.7 6273.72V6274.58H1002.65C1002.67 6275.32 1002.86 6275.88 1003.24 6276.28C1003.61 6276.67 1004.14 6276.87 1004.82 6276.87C1005.31 6276.87 1005.74 6276.83 1006.12 6276.74C1006.51 6276.64 1006.91 6276.5 1007.32 6276.32V6277.62C1006.94 6277.8 1006.55 6277.93 1006.16 6278.01C1005.77 6278.1 1005.3 6278.14 1004.75 6278.14C1004.01 6278.14 1003.36 6277.99 1002.79 6277.71C1002.23 6277.41 1001.79 6276.98 1001.47 6276.41C1001.16 6275.83 1001 6275.12 1001 6274.27C1001 6273.42 1001.14 6272.7 1001.43 6272.11C1001.72 6271.51 1002.12 6271.06 1002.64 6270.75C1003.16 6270.44 1003.77 6270.29 1004.46 6270.29ZM1004.46 6271.5C1003.95 6271.5 1003.54 6271.66 1003.23 6271.99C1002.92 6272.32 1002.74 6272.8 1002.68 6273.43H1006.13C1006.12 6273.06 1006.06 6272.72 1005.94 6272.43C1005.82 6272.14 1005.64 6271.91 1005.39 6271.75C1005.15 6271.58 1004.84 6271.5 1004.46 6271.5ZM1013.35 6270.29C1013.47 6270.29 1013.61 6270.3 1013.76 6270.31C1013.91 6270.32 1014.04 6270.34 1014.15 6270.36L1014 6271.87C1013.91 6271.84 1013.79 6271.82 1013.65 6271.81C1013.51 6271.79 1013.39 6271.79 1013.28 6271.79C1012.99 6271.79 1012.72 6271.83 1012.46 6271.93C1012.2 6272.02 1011.97 6272.16 1011.77 6272.35C1011.57 6272.54 1011.41 6272.78 1011.3 6273.06C1011.18 6273.34 1011.12 6273.67 1011.12 6274.04V6278H1009.51V6270.43H1010.77L1010.99 6271.77H1011.06C1011.21 6271.5 1011.4 6271.25 1011.62 6271.03C1011.85 6270.8 1012.1 6270.63 1012.39 6270.49C1012.68 6270.36 1013 6270.29 1013.35 6270.29ZM1017.28 6278L1014.41 6270.43H1016.11L1017.67 6274.88C1017.77 6275.16 1017.86 6275.46 1017.94 6275.79C1018.02 6276.12 1018.08 6276.4 1018.11 6276.62H1018.17C1018.2 6276.39 1018.26 6276.11 1018.35 6275.79C1018.44 6275.46 1018.54 6275.15 1018.63 6274.88L1020.19 6270.43H1021.88L1019.01 6278H1017.28ZM1026.05 6270.29C1026.72 6270.29 1027.3 6270.43 1027.78 6270.71C1028.27 6270.98 1028.64 6271.38 1028.9 6271.89C1029.16 6272.4 1029.29 6273.01 1029.29 6273.72V6274.58H1024.24C1024.25 6275.32 1024.45 6275.88 1024.82 6276.28C1025.2 6276.67 1025.73 6276.87 1026.41 6276.87C1026.89 6276.87 1027.33 6276.83 1027.71 6276.74C1028.1 6276.64 1028.5 6276.5 1028.91 6276.32V6277.62C1028.53 6277.8 1028.14 6277.93 1027.75 6278.01C1027.36 6278.1 1026.89 6278.14 1026.34 6278.14C1025.6 6278.14 1024.94 6277.99 1024.38 6277.71C1023.82 6277.41 1023.38 6276.98 1023.06 6276.41C1022.75 6275.83 1022.59 6275.12 1022.59 6274.27C1022.59 6273.42 1022.73 6272.7 1023.02 6272.11C1023.31 6271.51 1023.71 6271.06 1024.23 6270.75C1024.75 6270.44 1025.36 6270.29 1026.05 6270.29ZM1026.05 6271.5C1025.54 6271.5 1025.13 6271.66 1024.82 6271.99C1024.51 6272.32 1024.33 6272.8 1024.27 6273.43H1027.72C1027.71 6273.06 1027.65 6272.72 1027.52 6272.43C1027.41 6272.14 1027.22 6271.91 1026.98 6271.75C1026.74 6271.58 1026.43 6271.5 1026.05 6271.5ZM1033.64 6278.14C1032.74 6278.14 1032.02 6277.81 1031.47 6277.15C1030.93 6276.49 1030.66 6275.52 1030.66 6274.23C1030.66 6272.93 1030.93 6271.95 1031.48 6271.29C1032.04 6270.62 1032.77 6270.29 1033.68 6270.29C1034.06 6270.29 1034.39 6270.34 1034.68 6270.45C1034.97 6270.55 1035.21 6270.68 1035.42 6270.86C1035.63 6271.03 1035.81 6271.22 1035.95 6271.44H1036.03C1036.01 6271.3 1035.98 6271.09 1035.95 6270.83C1035.92 6270.56 1035.91 6270.31 1035.91 6270.08V6267.36H1037.52V6278H1036.26L1035.97 6276.97H1035.91C1035.77 6277.19 1035.6 6277.38 1035.39 6277.56C1035.18 6277.74 1034.93 6277.87 1034.65 6277.98C1034.36 6278.08 1034.03 6278.14 1033.64 6278.14ZM1034.09 6276.83C1034.78 6276.83 1035.27 6276.63 1035.55 6276.24C1035.83 6275.84 1035.98 6275.25 1035.99 6274.45V6274.24C1035.99 6273.39 1035.85 6272.74 1035.58 6272.29C1035.3 6271.84 1034.8 6271.61 1034.08 6271.61C1033.5 6271.61 1033.06 6271.84 1032.75 6272.31C1032.45 6272.78 1032.3 6273.43 1032.3 6274.26C1032.3 6275.09 1032.45 6275.73 1032.75 6276.17C1033.06 6276.61 1033.51 6276.83 1034.09 6276.83ZM1045.07 6267.36V6269.93C1045.07 6270.22 1045.06 6270.51 1045.04 6270.8C1045.02 6271.08 1045.01 6271.31 1045 6271.46H1045.07C1045.27 6271.14 1045.56 6270.86 1045.92 6270.64C1046.29 6270.41 1046.76 6270.3 1047.33 6270.3C1048.23 6270.3 1048.96 6270.63 1049.5 6271.29C1050.05 6271.94 1050.32 6272.92 1050.32 6274.21C1050.32 6275.06 1050.2 6275.78 1049.95 6276.37C1049.7 6276.95 1049.34 6277.39 1048.89 6277.69C1048.44 6277.99 1047.9 6278.14 1047.29 6278.14C1046.72 6278.14 1046.25 6278.03 1045.9 6277.82C1045.55 6277.61 1045.27 6277.36 1045.07 6277.08H1044.96L1044.66 6278H1043.46V6267.36H1045.07ZM1046.91 6271.6C1046.46 6271.6 1046.09 6271.69 1045.82 6271.88C1045.56 6272.06 1045.37 6272.33 1045.25 6272.7C1045.13 6273.06 1045.07 6273.51 1045.07 6274.07V6274.21C1045.07 6275.06 1045.2 6275.7 1045.46 6276.15C1045.73 6276.59 1046.22 6276.82 1046.92 6276.82C1047.49 6276.82 1047.92 6276.59 1048.22 6276.14C1048.52 6275.68 1048.67 6275.03 1048.67 6274.19C1048.67 6273.33 1048.52 6272.68 1048.22 6272.25C1047.92 6271.82 1047.49 6271.6 1046.91 6271.6ZM1051.04 6270.43H1052.79L1054.34 6274.75C1054.41 6274.95 1054.47 6275.14 1054.53 6275.33C1054.59 6275.52 1054.64 6275.71 1054.68 6275.89C1054.72 6276.07 1054.76 6276.25 1054.79 6276.43H1054.83C1054.87 6276.2 1054.94 6275.93 1055.02 6275.64C1055.11 6275.35 1055.2 6275.05 1055.31 6274.75L1056.8 6270.43H1058.53L1055.28 6279.04C1055.09 6279.53 1054.86 6279.95 1054.59 6280.3C1054.32 6280.65 1054 6280.91 1053.63 6281.09C1053.26 6281.27 1052.84 6281.36 1052.37 6281.36C1052.14 6281.36 1051.94 6281.35 1051.77 6281.32C1051.6 6281.3 1051.46 6281.27 1051.34 6281.25V6279.96C1051.44 6279.98 1051.56 6280.01 1051.7 6280.02C1051.85 6280.04 1052 6280.05 1052.15 6280.05C1052.44 6280.05 1052.69 6279.99 1052.9 6279.88C1053.11 6279.77 1053.29 6279.6 1053.43 6279.39C1053.58 6279.19 1053.7 6278.95 1053.79 6278.69L1054.06 6277.98L1051.04 6270.43ZM1067.79 6278L1064.91 6269.65H1064.85C1064.86 6269.84 1064.88 6270.1 1064.9 6270.42C1064.91 6270.74 1064.93 6271.09 1064.94 6271.46C1064.96 6271.83 1064.96 6272.18 1064.96 6272.52V6278H1063.47V6268.01H1065.78L1068.55 6275.98H1068.59L1071.45 6268.01H1073.75V6278H1072.18V6272.44C1072.18 6272.13 1072.19 6271.8 1072.2 6271.44C1072.21 6271.09 1072.22 6270.75 1072.24 6270.43C1072.26 6270.11 1072.27 6269.86 1072.28 6269.67H1072.22L1069.24 6278H1067.79ZM1079.23 6270.29C1079.91 6270.29 1080.48 6270.43 1080.97 6270.71C1081.45 6270.98 1081.82 6271.38 1082.08 6271.89C1082.34 6272.4 1082.47 6273.01 1082.47 6273.72V6274.58H1077.42C1077.44 6275.32 1077.63 6275.88 1078.01 6276.28C1078.39 6276.67 1078.91 6276.87 1079.59 6276.87C1080.08 6276.87 1080.51 6276.83 1080.89 6276.74C1081.28 6276.64 1081.68 6276.5 1082.09 6276.32V6277.62C1081.71 6277.8 1081.33 6277.93 1080.93 6278.01C1080.54 6278.1 1080.07 6278.14 1079.53 6278.14C1078.78 6278.14 1078.13 6277.99 1077.56 6277.71C1077 6277.41 1076.56 6276.98 1076.24 6276.41C1075.93 6275.83 1075.77 6275.12 1075.77 6274.27C1075.77 6273.42 1075.92 6272.7 1076.2 6272.11C1076.49 6271.51 1076.89 6271.06 1077.41 6270.75C1077.93 6270.44 1078.54 6270.29 1079.23 6270.29ZM1079.23 6271.5C1078.73 6271.5 1078.32 6271.66 1078 6271.99C1077.69 6272.32 1077.51 6272.8 1077.45 6273.43H1080.9C1080.89 6273.06 1080.83 6272.72 1080.71 6272.43C1080.59 6272.14 1080.41 6271.91 1080.16 6271.75C1079.92 6271.58 1079.61 6271.5 1079.23 6271.5ZM1085.67 6274.95H1084.46L1084.13 6268.01H1086L1085.67 6274.95ZM1084.05 6277.15C1084.05 6276.78 1084.15 6276.52 1084.34 6276.37C1084.53 6276.21 1084.77 6276.13 1085.06 6276.13C1085.33 6276.13 1085.57 6276.21 1085.77 6276.37C1085.96 6276.52 1086.06 6276.78 1086.06 6277.15C1086.06 6277.52 1085.96 6277.78 1085.77 6277.95C1085.57 6278.1 1085.33 6278.18 1085.06 6278.18C1084.77 6278.18 1084.53 6278.1 1084.34 6277.95C1084.15 6277.78 1084.05 6277.52 1084.05 6277.15Z" fill="white"/>
<path d="M932.292 6180V6167.42H937.018C938.004 6167.42 938.826 6167.62 939.483 6168.03C940.14 6168.43 940.633 6168.94 940.962 6169.58C941.291 6170.2 941.455 6170.86 941.455 6171.55C941.455 6172.24 941.291 6172.91 940.962 6173.54C940.633 6174.17 940.14 6174.7 939.483 6175.1C938.826 6175.5 938.004 6175.7 937.018 6175.7H934.281V6180H932.292ZM937.018 6169.15H934.281V6173.96H937.018C937.562 6173.96 938.015 6173.85 938.378 6173.62C938.741 6173.39 939.013 6173.09 939.194 6172.72C939.375 6172.35 939.466 6171.96 939.466 6171.57C939.466 6171.16 939.375 6170.77 939.194 6170.41C939.013 6170.04 938.741 6169.74 938.378 6169.51C938.015 6169.27 937.562 6169.15 937.018 6169.15ZM943.448 6180L943.465 6167.08H945.386V6180H943.448ZM951.654 6170.82C952.22 6170.82 952.691 6170.91 953.065 6171.09C953.45 6171.27 953.756 6171.48 953.983 6171.72C954.209 6171.96 954.374 6172.16 954.476 6172.33H954.578V6170.99H956.516V6180H954.578V6178.66H954.476C954.374 6178.83 954.209 6179.03 953.983 6179.27C953.756 6179.51 953.45 6179.72 953.065 6179.9C952.691 6180.08 952.22 6180.17 951.654 6180.17C950.974 6180.17 950.379 6180.04 949.869 6179.78C949.37 6179.51 948.951 6179.15 948.611 6178.71C948.271 6178.25 948.016 6177.75 947.846 6177.19C947.687 6176.64 947.608 6176.07 947.608 6175.49C947.608 6174.92 947.687 6174.35 947.846 6173.79C948.016 6173.24 948.271 6172.74 948.611 6172.3C948.951 6171.85 949.37 6171.49 949.869 6171.23C950.379 6170.96 950.974 6170.82 951.654 6170.82ZM952.079 6172.43C951.523 6172.43 951.059 6172.59 950.685 6172.89C950.311 6173.19 950.027 6173.57 949.835 6174.03C949.653 6174.5 949.563 6174.98 949.563 6175.49C949.563 6176 949.653 6176.49 949.835 6176.96C950.027 6177.42 950.311 6177.81 950.685 6178.11C951.059 6178.41 951.523 6178.55 952.079 6178.55C952.634 6178.55 953.093 6178.41 953.456 6178.11C953.83 6177.81 954.107 6177.42 954.289 6176.96C954.481 6176.49 954.578 6176 954.578 6175.49C954.578 6174.98 954.481 6174.5 954.289 6174.03C954.107 6173.57 953.83 6173.19 953.456 6172.89C953.093 6172.59 952.634 6172.43 952.079 6172.43ZM958.784 6180V6170.99H960.722V6172.3H960.824C960.903 6172.14 961.039 6171.95 961.232 6171.72C961.425 6171.48 961.691 6171.27 962.031 6171.09C962.382 6170.91 962.824 6170.82 963.357 6170.82C964.026 6170.82 964.587 6170.97 965.04 6171.28C965.493 6171.58 965.833 6171.99 966.06 6172.5C966.298 6173.01 966.417 6173.57 966.417 6174.19V6180H964.479V6174.39C964.479 6173.85 964.326 6173.39 964.02 6173.01C963.725 6172.64 963.283 6172.45 962.694 6172.45C962.229 6172.45 961.85 6172.57 961.555 6172.81C961.272 6173.04 961.062 6173.34 960.926 6173.71C960.79 6174.07 960.722 6174.46 960.722 6174.88V6180H958.784ZM972.13 6180.17C971.416 6180.17 970.827 6180.07 970.362 6179.88C969.909 6179.68 969.546 6179.43 969.274 6179.15C969.002 6178.86 968.798 6178.56 968.662 6178.27C968.537 6177.97 968.458 6177.73 968.424 6177.53C968.39 6177.33 968.373 6177.23 968.373 6177.23H970.26C970.26 6177.23 970.277 6177.3 970.311 6177.45C970.356 6177.59 970.441 6177.74 970.566 6177.93C970.691 6178.11 970.883 6178.27 971.144 6178.42C971.405 6178.55 971.75 6178.62 972.181 6178.62C972.702 6178.62 973.088 6178.5 973.337 6178.27C973.598 6178.03 973.728 6177.76 973.728 6177.45C973.728 6177.16 973.62 6176.92 973.405 6176.75C973.19 6176.58 972.884 6176.45 972.487 6176.36L971.263 6176.09C970.787 6175.98 970.339 6175.82 969.92 6175.63C969.512 6175.43 969.178 6175.16 968.917 6174.83C968.668 6174.49 968.543 6174.06 968.543 6173.52C968.543 6172.74 968.838 6172.09 969.427 6171.58C970.016 6171.07 970.81 6170.82 971.807 6170.82C972.453 6170.82 972.986 6170.91 973.405 6171.09C973.836 6171.27 974.176 6171.5 974.425 6171.77C974.674 6172.03 974.861 6172.3 974.986 6172.57C975.111 6172.83 975.19 6173.05 975.224 6173.23C975.269 6173.4 975.292 6173.49 975.292 6173.49H973.473C973.473 6173.49 973.456 6173.43 973.422 6173.32C973.388 6173.21 973.314 6173.08 973.201 6172.93C973.088 6172.77 972.918 6172.63 972.691 6172.52C972.476 6172.4 972.181 6172.33 971.807 6172.33C971.297 6172.33 970.929 6172.45 970.702 6172.67C970.475 6172.9 970.362 6173.14 970.362 6173.4C970.362 6173.68 970.47 6173.89 970.685 6174.05C970.912 6174.2 971.206 6174.31 971.569 6174.39L972.776 6174.66C973.581 6174.84 974.244 6175.14 974.765 6175.56C975.286 6175.97 975.547 6176.57 975.547 6177.35C975.547 6177.87 975.411 6178.35 975.139 6178.78C974.878 6179.2 974.493 6179.54 973.983 6179.8C973.473 6180.05 972.855 6180.17 972.13 6180.17ZM985.612 6180.17C984.819 6180.17 984.088 6180.03 983.419 6179.74C982.75 6179.45 982.218 6179.03 981.821 6178.49C981.424 6177.94 981.226 6177.29 981.226 6176.51C981.226 6175.72 981.447 6175.04 981.889 6174.47C982.342 6173.9 982.954 6173.39 983.725 6172.96V6172.94C983.43 6172.62 983.147 6172.24 982.875 6171.81C982.614 6171.36 982.484 6170.83 982.484 6170.19C982.484 6169.54 982.631 6169.01 982.926 6168.58C983.232 6168.13 983.623 6167.81 984.099 6167.59C984.586 6167.36 985.096 6167.25 985.629 6167.25C986.15 6167.25 986.643 6167.36 987.108 6167.57C987.573 6167.78 987.952 6168.08 988.247 6168.49C988.542 6168.9 988.689 6169.4 988.689 6169.99C988.689 6170.69 988.468 6171.31 988.026 6171.84C987.584 6172.37 986.989 6172.84 986.241 6173.23L989.046 6176.36C989.25 6175.91 989.409 6175.39 989.522 6174.8C989.635 6174.21 989.692 6173.54 989.692 6172.79H991.307C991.307 6173.83 991.205 6174.76 991.001 6175.56C990.808 6176.36 990.536 6177.05 990.185 6177.64L992.293 6179.98H989.879L989.029 6179.01C988.542 6179.41 988.009 6179.71 987.431 6179.9C986.853 6180.08 986.247 6180.17 985.612 6180.17ZM984.15 6170.12C984.15 6170.49 984.263 6170.83 984.49 6171.16C984.717 6171.48 984.989 6171.81 985.306 6172.16H985.34C985.839 6171.91 986.241 6171.62 986.547 6171.28C986.864 6170.93 987.023 6170.53 987.023 6170.07C987.023 6169.62 986.881 6169.28 986.598 6169.05C986.326 6168.81 986.003 6168.69 985.629 6168.69C985.244 6168.69 984.898 6168.83 984.592 6169.09C984.297 6169.34 984.15 6169.68 984.15 6170.12ZM983.028 6176.36C983.028 6177.05 983.283 6177.6 983.793 6177.99C984.314 6178.39 984.955 6178.59 985.714 6178.59C986.133 6178.59 986.536 6178.53 986.921 6178.4C987.306 6178.28 987.658 6178.08 987.975 6177.81L984.66 6174.03C984.161 6174.33 983.765 6174.67 983.47 6175.05C983.175 6175.43 983.028 6175.86 983.028 6176.36ZM998.184 6183.33V6170.99H1000.12V6172.33H1000.22C1000.34 6172.16 1000.5 6171.96 1000.72 6171.72C1000.94 6171.48 1001.24 6171.27 1001.62 6171.09C1002 6170.91 1002.48 6170.82 1003.06 6170.82C1003.73 6170.82 1004.32 6170.96 1004.83 6171.23C1005.34 6171.49 1005.76 6171.85 1006.09 6172.3C1006.43 6172.74 1006.68 6173.24 1006.84 6173.79C1007.01 6174.35 1007.09 6174.92 1007.09 6175.49C1007.09 6176.07 1007.01 6176.64 1006.84 6177.19C1006.68 6177.75 1006.43 6178.25 1006.09 6178.71C1005.76 6179.15 1005.34 6179.51 1004.83 6179.78C1004.32 6180.04 1003.73 6180.17 1003.06 6180.17C1002.48 6180.17 1002 6180.08 1001.62 6179.9C1001.24 6179.72 1000.94 6179.51 1000.72 6179.27C1000.5 6179.03 1000.34 6178.83 1000.22 6178.66H1000.12V6183.33H998.184ZM1000.12 6175.49C1000.12 6176 1000.21 6176.49 1000.39 6176.96C1000.59 6177.42 1000.86 6177.81 1001.23 6178.11C1001.6 6178.41 1002.07 6178.55 1002.62 6178.55C1003.19 6178.55 1003.65 6178.41 1004.01 6178.11C1004.39 6177.81 1004.67 6177.42 1004.85 6176.96C1005.04 6176.49 1005.14 6176 1005.14 6175.49C1005.14 6174.98 1005.04 6174.5 1004.85 6174.03C1004.67 6173.57 1004.39 6173.19 1004.01 6172.89C1003.65 6172.59 1003.19 6172.43 1002.62 6172.43C1002.07 6172.43 1001.6 6172.59 1001.23 6172.89C1000.86 6173.19 1000.59 6173.57 1000.39 6174.03C1000.21 6174.5 1000.12 6174.98 1000.12 6175.49ZM1009.19 6180V6170.99H1011.12V6172.18H1011.19C1011.36 6171.83 1011.63 6171.52 1011.99 6171.24C1012.37 6170.96 1012.9 6170.82 1013.61 6170.82C1013.82 6170.82 1014 6170.83 1014.15 6170.85C1014.31 6170.88 1014.39 6170.89 1014.39 6170.89V6172.76C1014.39 6172.76 1014.3 6172.75 1014.13 6172.72C1013.96 6172.7 1013.77 6172.69 1013.56 6172.69C1012.76 6172.69 1012.16 6172.92 1011.74 6173.37C1011.33 6173.81 1011.12 6174.53 1011.12 6175.53V6180H1009.19ZM1017.57 6169.44C1017.21 6169.44 1016.92 6169.32 1016.7 6169.09C1016.47 6168.85 1016.36 6168.57 1016.36 6168.25C1016.36 6167.92 1016.47 6167.65 1016.7 6167.42C1016.92 6167.18 1017.21 6167.06 1017.57 6167.06C1017.92 6167.06 1018.21 6167.18 1018.43 6167.42C1018.67 6167.65 1018.79 6167.92 1018.79 6168.25C1018.79 6168.58 1018.67 6168.86 1018.43 6169.1C1018.21 6169.33 1017.92 6169.44 1017.57 6169.44ZM1016.61 6180V6170.99H1018.55V6180H1016.61ZM1025.41 6180.17C1024.65 6180.17 1023.99 6180.04 1023.42 6179.78C1022.85 6179.51 1022.38 6179.15 1022.01 6178.71C1021.63 6178.25 1021.35 6177.75 1021.16 6177.19C1020.98 6176.64 1020.89 6176.07 1020.89 6175.49C1020.89 6174.92 1020.98 6174.35 1021.16 6173.79C1021.35 6173.24 1021.63 6172.74 1022.01 6172.3C1022.38 6171.85 1022.85 6171.49 1023.42 6171.23C1023.99 6170.96 1024.65 6170.82 1025.41 6170.82C1026.16 6170.82 1026.77 6170.93 1027.26 6171.16C1027.76 6171.38 1028.16 6171.65 1028.45 6171.98C1028.75 6172.3 1028.97 6172.63 1029.11 6172.96C1029.26 6173.29 1029.35 6173.57 1029.39 6173.79C1029.43 6174.02 1029.45 6174.13 1029.45 6174.13H1027.62C1027.62 6174.13 1027.59 6174.05 1027.53 6173.88C1027.49 6173.71 1027.39 6173.51 1027.24 6173.28C1027.1 6173.06 1026.88 6172.86 1026.58 6172.69C1026.3 6172.52 1025.91 6172.43 1025.43 6172.43C1024.85 6172.43 1024.37 6172.58 1023.98 6172.88C1023.6 6173.16 1023.3 6173.53 1023.1 6174C1022.9 6174.46 1022.81 6174.96 1022.81 6175.49C1022.81 6176.03 1022.9 6176.53 1023.1 6176.99C1023.3 6177.46 1023.6 6177.84 1023.98 6178.13C1024.37 6178.41 1024.85 6178.55 1025.43 6178.55C1025.91 6178.55 1026.3 6178.47 1026.58 6178.3C1026.88 6178.13 1027.1 6177.93 1027.24 6177.7C1027.39 6177.48 1027.49 6177.28 1027.53 6177.11C1027.59 6176.94 1027.62 6176.85 1027.62 6176.85H1029.45C1029.45 6176.85 1029.43 6176.97 1029.39 6177.19C1029.35 6177.42 1029.26 6177.7 1029.11 6178.03C1028.97 6178.36 1028.75 6178.69 1028.45 6179.01C1028.16 6179.34 1027.76 6179.62 1027.26 6179.85C1026.77 6180.06 1026.16 6180.17 1025.41 6180.17ZM1032.76 6169.44C1032.4 6169.44 1032.12 6169.32 1031.89 6169.09C1031.66 6168.85 1031.55 6168.57 1031.55 6168.25C1031.55 6167.92 1031.66 6167.65 1031.89 6167.42C1032.12 6167.18 1032.4 6167.06 1032.76 6167.06C1033.11 6167.06 1033.4 6167.18 1033.62 6167.42C1033.86 6167.65 1033.98 6167.92 1033.98 6168.25C1033.98 6168.58 1033.86 6168.86 1033.62 6169.1C1033.4 6169.33 1033.11 6169.44 1032.76 6169.44ZM1031.8 6180V6170.99H1033.74V6180H1031.8ZM1036.23 6180V6170.99H1038.17V6172.3H1038.27C1038.35 6172.14 1038.49 6171.95 1038.68 6171.72C1038.87 6171.48 1039.14 6171.27 1039.48 6171.09C1039.83 6170.91 1040.27 6170.82 1040.8 6170.82C1041.47 6170.82 1042.03 6170.97 1042.49 6171.28C1042.94 6171.58 1043.28 6171.99 1043.51 6172.5C1043.74 6173.01 1043.86 6173.57 1043.86 6174.19V6180H1041.93V6174.39C1041.93 6173.85 1041.77 6173.39 1041.47 6173.01C1041.17 6172.64 1040.73 6172.45 1040.14 6172.45C1039.68 6172.45 1039.3 6172.57 1039 6172.81C1038.72 6173.04 1038.51 6173.34 1038.37 6173.71C1038.24 6174.07 1038.17 6174.46 1038.17 6174.88V6180H1036.23ZM1050.51 6183.59C1049.73 6183.59 1049.08 6183.49 1048.57 6183.28C1048.06 6183.08 1047.66 6182.82 1047.35 6182.52C1047.04 6182.22 1046.82 6181.92 1046.67 6181.62C1046.52 6181.32 1046.43 6181.07 1046.38 6180.87C1046.34 6180.66 1046.31 6180.56 1046.31 6180.56H1048.23C1048.23 6180.56 1048.26 6180.63 1048.3 6180.77C1048.35 6180.91 1048.44 6181.08 1048.59 6181.26C1048.75 6181.45 1048.98 6181.62 1049.29 6181.75C1049.59 6181.9 1050 6181.97 1050.5 6181.97C1051.08 6181.97 1051.55 6181.85 1051.91 6181.62C1052.27 6181.39 1052.52 6181.08 1052.67 6180.7C1052.83 6180.32 1052.91 6179.91 1052.91 6179.47V6178.45H1052.82C1052.7 6178.65 1052.52 6178.86 1052.28 6179.1C1052.05 6179.33 1051.75 6179.52 1051.36 6179.69C1050.98 6179.86 1050.51 6179.95 1049.97 6179.95C1049.29 6179.95 1048.69 6179.82 1048.18 6179.56C1047.68 6179.3 1047.27 6178.95 1046.93 6178.52C1046.6 6178.08 1046.35 6177.59 1046.18 6177.04C1046.01 6176.5 1045.92 6175.94 1045.92 6175.38C1045.92 6174.81 1046.01 6174.26 1046.18 6173.73C1046.35 6173.18 1046.6 6172.7 1046.93 6172.26C1047.27 6171.82 1047.68 6171.47 1048.18 6171.21C1048.69 6170.95 1049.29 6170.82 1049.97 6170.82C1050.51 6170.82 1050.98 6170.9 1051.36 6171.07C1051.75 6171.23 1052.06 6171.43 1052.3 6171.67C1052.54 6171.9 1052.71 6172.11 1052.82 6172.32H1052.91V6170.99H1054.85V6179.46C1054.85 6180.26 1054.68 6180.97 1054.35 6181.6C1054.03 6182.22 1053.54 6182.71 1052.89 6183.06C1052.25 6183.41 1051.45 6183.59 1050.51 6183.59ZM1050.41 6178.35C1050.97 6178.35 1051.43 6178.21 1051.8 6177.93C1052.18 6177.63 1052.46 6177.26 1052.64 6176.8C1052.82 6176.35 1052.91 6175.87 1052.91 6175.38C1052.91 6174.88 1052.82 6174.4 1052.64 6173.95C1052.46 6173.49 1052.18 6173.13 1051.8 6172.84C1051.43 6172.56 1050.97 6172.42 1050.41 6172.42C1049.84 6172.42 1049.37 6172.56 1049 6172.84C1048.63 6173.13 1048.35 6173.49 1048.17 6173.95C1047.98 6174.4 1047.89 6174.88 1047.89 6175.38C1047.89 6175.87 1047.98 6176.35 1048.17 6176.8C1048.35 6177.26 1048.63 6177.63 1049 6177.93C1049.37 6178.21 1049.84 6178.35 1050.41 6178.35Z" fill="white"/>
<path d="M1080.29 6180V6167.42H1084.97C1085.86 6167.42 1086.62 6167.6 1087.23 6167.95C1087.85 6168.29 1088.32 6168.74 1088.64 6169.31C1088.96 6169.86 1089.12 6170.47 1089.12 6171.13C1089.12 6171.92 1088.89 6172.64 1088.44 6173.28C1087.99 6173.93 1087.34 6174.38 1086.48 6174.64L1089.51 6180H1087.28L1084.42 6174.87H1082.28V6180H1080.29ZM1084.93 6169.15H1082.28V6173.2H1084.93C1085.65 6173.2 1086.19 6173 1086.55 6172.59C1086.91 6172.17 1087.09 6171.7 1087.09 6171.18C1087.09 6170.66 1086.91 6170.19 1086.55 6169.78C1086.19 6169.36 1085.65 6169.15 1084.93 6169.15ZM1095.11 6180.17C1094.35 6180.17 1093.7 6180.04 1093.14 6179.78C1092.6 6179.51 1092.14 6179.15 1091.78 6178.71C1091.43 6178.25 1091.16 6177.75 1090.98 6177.19C1090.81 6176.64 1090.73 6176.07 1090.73 6175.49C1090.73 6174.93 1090.81 6174.37 1090.98 6173.81C1091.15 6173.26 1091.41 6172.75 1091.76 6172.3C1092.12 6171.85 1092.56 6171.49 1093.11 6171.23C1093.65 6170.96 1094.29 6170.82 1095.03 6170.82C1095.82 6170.82 1096.52 6171 1097.12 6171.36C1097.73 6171.72 1098.21 6172.24 1098.55 6172.94C1098.9 6173.64 1099.07 6174.5 1099.07 6175.53V6176.06H1092.68C1092.73 6176.75 1092.96 6177.34 1093.38 6177.84C1093.8 6178.34 1094.38 6178.59 1095.11 6178.59C1095.53 6178.59 1095.88 6178.52 1096.15 6178.38C1096.42 6178.24 1096.63 6178.07 1096.78 6177.89C1096.93 6177.71 1097.03 6177.55 1097.08 6177.42C1097.15 6177.28 1097.19 6177.21 1097.19 6177.21H1098.99C1098.99 6177.21 1098.96 6177.31 1098.9 6177.52C1098.85 6177.71 1098.74 6177.95 1098.58 6178.25C1098.43 6178.54 1098.22 6178.84 1097.93 6179.13C1097.65 6179.43 1097.28 6179.68 1096.81 6179.88C1096.35 6180.07 1095.78 6180.17 1095.11 6180.17ZM1092.7 6174.7H1097.2C1097.16 6173.9 1096.92 6173.32 1096.49 6172.94C1096.07 6172.57 1095.58 6172.38 1095.01 6172.38C1094.38 6172.38 1093.85 6172.59 1093.43 6173.01C1093.01 6173.42 1092.77 6173.98 1092.7 6174.7ZM1104.64 6180.17C1103.93 6180.17 1103.34 6180.07 1102.87 6179.88C1102.42 6179.68 1102.06 6179.43 1101.78 6179.15C1101.51 6178.86 1101.31 6178.56 1101.17 6178.27C1101.05 6177.97 1100.97 6177.73 1100.93 6177.53C1100.9 6177.33 1100.88 6177.23 1100.88 6177.23H1102.77C1102.77 6177.23 1102.79 6177.3 1102.82 6177.45C1102.87 6177.59 1102.95 6177.74 1103.08 6177.93C1103.2 6178.11 1103.39 6178.27 1103.65 6178.42C1103.92 6178.55 1104.26 6178.62 1104.69 6178.62C1105.21 6178.62 1105.6 6178.5 1105.85 6178.27C1106.11 6178.03 1106.24 6177.76 1106.24 6177.45C1106.24 6177.16 1106.13 6176.92 1105.92 6176.75C1105.7 6176.58 1105.39 6176.45 1105 6176.36L1103.77 6176.09C1103.3 6175.98 1102.85 6175.82 1102.43 6175.63C1102.02 6175.43 1101.69 6175.16 1101.43 6174.83C1101.18 6174.49 1101.05 6174.06 1101.05 6173.52C1101.05 6172.74 1101.35 6172.09 1101.94 6171.58C1102.53 6171.07 1103.32 6170.82 1104.32 6170.82C1104.96 6170.82 1105.5 6170.91 1105.92 6171.09C1106.35 6171.27 1106.69 6171.5 1106.94 6171.77C1107.19 6172.03 1107.37 6172.3 1107.5 6172.57C1107.62 6172.83 1107.7 6173.05 1107.73 6173.23C1107.78 6173.4 1107.8 6173.49 1107.8 6173.49H1105.98C1105.98 6173.49 1105.97 6173.43 1105.93 6173.32C1105.9 6173.21 1105.83 6173.08 1105.71 6172.93C1105.6 6172.77 1105.43 6172.63 1105.2 6172.52C1104.99 6172.4 1104.69 6172.33 1104.32 6172.33C1103.81 6172.33 1103.44 6172.45 1103.21 6172.67C1102.99 6172.9 1102.87 6173.14 1102.87 6173.4C1102.87 6173.68 1102.98 6173.89 1103.2 6174.05C1103.42 6174.2 1103.72 6174.31 1104.08 6174.39L1105.29 6174.66C1106.09 6174.84 1106.75 6175.14 1107.28 6175.56C1107.8 6175.97 1108.06 6176.57 1108.06 6177.35C1108.06 6177.87 1107.92 6178.35 1107.65 6178.78C1107.39 6179.2 1107 6179.54 1106.49 6179.8C1105.98 6180.05 1105.37 6180.17 1104.64 6180.17ZM1114.22 6180.17C1113.24 6180.17 1112.41 6179.95 1111.73 6179.51C1111.06 6179.06 1110.55 6178.49 1110.2 6177.77C1109.86 6177.06 1109.69 6176.3 1109.69 6175.49C1109.69 6174.69 1109.86 6173.93 1110.2 6173.22C1110.55 6172.5 1111.06 6171.92 1111.73 6171.48C1112.41 6171.04 1113.24 6170.82 1114.22 6170.82C1115.2 6170.82 1116.02 6171.04 1116.69 6171.48C1117.37 6171.92 1117.88 6172.5 1118.22 6173.22C1118.57 6173.93 1118.75 6174.69 1118.75 6175.49C1118.75 6176.3 1118.57 6177.06 1118.22 6177.77C1117.88 6178.49 1117.37 6179.06 1116.69 6179.51C1116.02 6179.95 1115.2 6180.17 1114.22 6180.17ZM1114.22 6178.52C1114.78 6178.52 1115.24 6178.38 1115.62 6178.1C1116 6177.81 1116.29 6177.44 1116.49 6176.97C1116.69 6176.51 1116.79 6176.02 1116.79 6175.49C1116.79 6174.96 1116.69 6174.47 1116.49 6174.02C1116.29 6173.55 1116 6173.18 1115.62 6172.89C1115.24 6172.61 1114.78 6172.47 1114.22 6172.47C1113.67 6172.47 1113.2 6172.61 1112.81 6172.89C1112.43 6173.18 1112.14 6173.55 1111.95 6174.02C1111.75 6174.47 1111.66 6174.96 1111.66 6175.49C1111.66 6176.02 1111.75 6176.51 1111.95 6176.97C1112.14 6177.44 1112.43 6177.81 1112.81 6178.1C1113.2 6178.38 1113.67 6178.52 1114.22 6178.52ZM1123.74 6180.17C1122.83 6180.17 1122.12 6179.89 1121.61 6179.32C1121.1 6178.75 1120.85 6178 1120.85 6177.06V6170.99H1122.78V6176.82C1122.78 6177.36 1122.93 6177.79 1123.21 6178.1C1123.5 6178.39 1123.9 6178.54 1124.4 6178.54C1124.89 6178.54 1125.28 6178.41 1125.57 6178.16C1125.87 6177.91 1126.08 6177.6 1126.2 6177.21C1126.34 6176.82 1126.4 6176.41 1126.4 6175.99V6170.99H1128.34V6180H1126.4V6178.71H1126.3C1126.21 6178.88 1126.06 6179.08 1125.86 6179.32C1125.67 6179.55 1125.4 6179.74 1125.04 6179.91C1124.7 6180.09 1124.27 6180.17 1123.74 6180.17ZM1130.59 6180V6170.99H1132.53V6172.18H1132.6C1132.77 6171.83 1133.03 6171.52 1133.4 6171.24C1133.77 6170.96 1134.31 6170.82 1135.01 6170.82C1135.23 6170.82 1135.41 6170.83 1135.55 6170.85C1135.71 6170.88 1135.79 6170.89 1135.79 6170.89V6172.76C1135.79 6172.76 1135.71 6172.75 1135.54 6172.72C1135.37 6172.7 1135.18 6172.69 1134.96 6172.69C1134.17 6172.69 1133.56 6172.92 1133.14 6173.37C1132.73 6173.81 1132.53 6174.53 1132.53 6175.53V6180H1130.59ZM1141.25 6180.17C1140.49 6180.17 1139.83 6180.04 1139.26 6179.78C1138.7 6179.51 1138.23 6179.15 1137.85 6178.71C1137.48 6178.25 1137.19 6177.75 1137 6177.19C1136.82 6176.64 1136.73 6176.07 1136.73 6175.49C1136.73 6174.92 1136.82 6174.35 1137 6173.79C1137.19 6173.24 1137.48 6172.74 1137.85 6172.3C1138.23 6171.85 1138.7 6171.49 1139.26 6171.23C1139.83 6170.96 1140.49 6170.82 1141.25 6170.82C1142 6170.82 1142.62 6170.93 1143.1 6171.16C1143.6 6171.38 1144 6171.65 1144.29 6171.98C1144.59 6172.3 1144.81 6172.63 1144.96 6172.96C1145.11 6173.29 1145.2 6173.57 1145.23 6173.79C1145.28 6174.02 1145.3 6174.13 1145.3 6174.13H1143.46C1143.46 6174.13 1143.43 6174.05 1143.38 6173.88C1143.33 6173.71 1143.24 6173.51 1143.09 6173.28C1142.94 6173.06 1142.72 6172.86 1142.42 6172.69C1142.14 6172.52 1141.76 6172.43 1141.27 6172.43C1140.69 6172.43 1140.21 6172.58 1139.82 6172.88C1139.44 6173.16 1139.14 6173.53 1138.94 6174C1138.75 6174.46 1138.65 6174.96 1138.65 6175.49C1138.65 6176.03 1138.75 6176.53 1138.94 6176.99C1139.14 6177.46 1139.44 6177.84 1139.82 6178.13C1140.21 6178.41 1140.69 6178.55 1141.27 6178.55C1141.76 6178.55 1142.14 6178.47 1142.42 6178.3C1142.72 6178.13 1142.94 6177.93 1143.09 6177.7C1143.24 6177.48 1143.33 6177.28 1143.38 6177.11C1143.43 6176.94 1143.46 6176.85 1143.46 6176.85H1145.3C1145.3 6176.85 1145.28 6176.97 1145.23 6177.19C1145.2 6177.42 1145.11 6177.7 1144.96 6178.03C1144.81 6178.36 1144.59 6178.69 1144.29 6179.01C1144 6179.34 1143.6 6179.62 1143.1 6179.85C1142.62 6180.06 1142 6180.17 1141.25 6180.17ZM1151.59 6180.17C1150.83 6180.17 1150.17 6180.04 1149.62 6179.78C1149.08 6179.51 1148.62 6179.15 1148.26 6178.71C1147.91 6178.25 1147.64 6177.75 1147.46 6177.19C1147.29 6176.64 1147.21 6176.07 1147.21 6175.49C1147.21 6174.93 1147.29 6174.37 1147.46 6173.81C1147.63 6173.26 1147.89 6172.75 1148.24 6172.3C1148.59 6171.85 1149.04 6171.49 1149.59 6171.23C1150.13 6170.96 1150.77 6170.82 1151.51 6170.82C1152.3 6170.82 1153 6171 1153.6 6171.36C1154.21 6171.72 1154.69 6172.24 1155.03 6172.94C1155.38 6173.64 1155.55 6174.5 1155.55 6175.53V6176.06H1149.16C1149.21 6176.75 1149.44 6177.34 1149.86 6177.84C1150.28 6178.34 1150.85 6178.59 1151.59 6178.59C1152.01 6178.59 1152.36 6178.52 1152.63 6178.38C1152.9 6178.24 1153.11 6178.07 1153.26 6177.89C1153.4 6177.71 1153.51 6177.55 1153.56 6177.42C1153.63 6177.28 1153.67 6177.21 1153.67 6177.21H1155.47C1155.47 6177.21 1155.44 6177.31 1155.38 6177.52C1155.33 6177.71 1155.22 6177.95 1155.06 6178.25C1154.91 6178.54 1154.7 6178.84 1154.41 6179.13C1154.13 6179.43 1153.76 6179.68 1153.29 6179.88C1152.83 6180.07 1152.26 6180.17 1151.59 6180.17ZM1149.18 6174.7H1153.68C1153.64 6173.9 1153.4 6173.32 1152.97 6172.94C1152.55 6172.57 1152.06 6172.38 1151.49 6172.38C1150.85 6172.38 1150.33 6172.59 1149.91 6173.01C1149.49 6173.42 1149.25 6173.98 1149.18 6174.7ZM1161.12 6180.17C1160.41 6180.17 1159.82 6180.07 1159.35 6179.88C1158.9 6179.68 1158.54 6179.43 1158.26 6179.15C1157.99 6178.86 1157.79 6178.56 1157.65 6178.27C1157.53 6177.97 1157.45 6177.73 1157.41 6177.53C1157.38 6177.33 1157.36 6177.23 1157.36 6177.23H1159.25C1159.25 6177.23 1159.27 6177.3 1159.3 6177.45C1159.35 6177.59 1159.43 6177.74 1159.56 6177.93C1159.68 6178.11 1159.87 6178.27 1160.13 6178.42C1160.39 6178.55 1160.74 6178.62 1161.17 6178.62C1161.69 6178.62 1162.08 6178.5 1162.33 6178.27C1162.59 6178.03 1162.72 6177.76 1162.72 6177.45C1162.72 6177.16 1162.61 6176.92 1162.39 6176.75C1162.18 6176.58 1161.87 6176.45 1161.48 6176.36L1160.25 6176.09C1159.78 6175.98 1159.33 6175.82 1158.91 6175.63C1158.5 6175.43 1158.17 6175.16 1157.91 6174.83C1157.66 6174.49 1157.53 6174.06 1157.53 6173.52C1157.53 6172.74 1157.83 6172.09 1158.42 6171.58C1159.01 6171.07 1159.8 6170.82 1160.8 6170.82C1161.44 6170.82 1161.97 6170.91 1162.39 6171.09C1162.82 6171.27 1163.16 6171.5 1163.41 6171.77C1163.66 6172.03 1163.85 6172.3 1163.98 6172.57C1164.1 6172.83 1164.18 6173.05 1164.21 6173.23C1164.26 6173.4 1164.28 6173.49 1164.28 6173.49H1162.46C1162.46 6173.49 1162.45 6173.43 1162.41 6173.32C1162.38 6173.21 1162.3 6173.08 1162.19 6172.93C1162.08 6172.77 1161.91 6172.63 1161.68 6172.52C1161.46 6172.4 1161.17 6172.33 1160.8 6172.33C1160.29 6172.33 1159.92 6172.45 1159.69 6172.67C1159.46 6172.9 1159.35 6173.14 1159.35 6173.4C1159.35 6173.68 1159.46 6173.89 1159.67 6174.05C1159.9 6174.2 1160.2 6174.31 1160.56 6174.39L1161.77 6174.66C1162.57 6174.84 1163.23 6175.14 1163.75 6175.56C1164.28 6175.97 1164.54 6176.57 1164.54 6177.35C1164.54 6177.87 1164.4 6178.35 1164.13 6178.78C1163.87 6179.2 1163.48 6179.54 1162.97 6179.8C1162.46 6180.05 1161.84 6180.17 1161.12 6180.17Z" fill="white"/>
<path d="M829.292 6180V6167.42H837.758V6169.15H831.281V6173.01H836.976V6174.73H831.281V6180H829.292ZM843.299 6180.17C842.54 6180.17 841.883 6180.04 841.327 6179.78C840.783 6179.51 840.33 6179.15 839.967 6178.71C839.616 6178.25 839.35 6177.75 839.168 6177.19C838.998 6176.64 838.913 6176.07 838.913 6175.49C838.913 6174.93 838.998 6174.37 839.168 6173.81C839.338 6173.26 839.599 6172.75 839.95 6172.3C840.302 6171.85 840.749 6171.49 841.293 6171.23C841.837 6170.96 842.478 6170.82 843.214 6170.82C844.008 6170.82 844.705 6171 845.305 6171.36C845.917 6171.72 846.393 6172.24 846.733 6172.94C847.085 6173.64 847.26 6174.5 847.26 6175.53V6176.06H840.868C840.914 6176.75 841.146 6177.34 841.565 6177.84C841.985 6178.34 842.563 6178.59 843.299 6178.59C843.719 6178.59 844.064 6178.52 844.336 6178.38C844.608 6178.24 844.818 6178.07 844.965 6177.89C845.113 6177.71 845.215 6177.55 845.271 6177.42C845.339 6177.28 845.373 6177.21 845.373 6177.21H847.175C847.175 6177.21 847.147 6177.31 847.09 6177.52C847.034 6177.71 846.926 6177.95 846.767 6178.25C846.62 6178.54 846.405 6178.84 846.121 6179.13C845.838 6179.43 845.464 6179.68 844.999 6179.88C844.535 6180.07 843.968 6180.17 843.299 6180.17ZM840.885 6174.7H845.39C845.345 6173.9 845.107 6173.32 844.676 6172.94C844.257 6172.57 843.764 6172.38 843.197 6172.38C842.563 6172.38 842.036 6172.59 841.616 6173.01C841.197 6173.42 840.953 6173.98 840.885 6174.7ZM853.169 6170.82C853.736 6170.82 854.206 6170.91 854.58 6171.09C854.966 6171.27 855.272 6171.48 855.498 6171.72C855.725 6171.96 855.889 6172.16 855.991 6172.33H856.093V6170.99H858.031V6180H856.093V6178.66H855.991C855.889 6178.83 855.725 6179.03 855.498 6179.27C855.272 6179.51 854.966 6179.72 854.58 6179.9C854.206 6180.08 853.736 6180.17 853.169 6180.17C852.489 6180.17 851.894 6180.04 851.384 6179.78C850.886 6179.51 850.466 6179.15 850.126 6178.71C849.786 6178.25 849.531 6177.75 849.361 6177.19C849.203 6176.64 849.123 6176.07 849.123 6175.49C849.123 6174.92 849.203 6174.35 849.361 6173.79C849.531 6173.24 849.786 6172.74 850.126 6172.3C850.466 6171.85 850.886 6171.49 851.384 6171.23C851.894 6170.96 852.489 6170.82 853.169 6170.82ZM853.594 6172.43C853.039 6172.43 852.574 6172.59 852.2 6172.89C851.826 6173.19 851.543 6173.57 851.35 6174.03C851.169 6174.5 851.078 6174.98 851.078 6175.49C851.078 6176 851.169 6176.49 851.35 6176.96C851.543 6177.42 851.826 6177.81 852.2 6178.11C852.574 6178.41 853.039 6178.55 853.594 6178.55C854.15 6178.55 854.609 6178.41 854.971 6178.11C855.345 6177.81 855.623 6177.42 855.804 6176.96C855.997 6176.49 856.093 6176 856.093 6175.49C856.093 6174.98 855.997 6174.5 855.804 6174.03C855.623 6173.57 855.345 6173.19 854.971 6172.89C854.609 6172.59 854.15 6172.43 853.594 6172.43ZM863.962 6180.17C863.248 6180.17 862.675 6180.04 862.245 6179.78C861.814 6179.52 861.502 6179.17 861.31 6178.74C861.128 6178.3 861.038 6177.82 861.038 6177.31V6172.55H859.457V6170.99H861.038V6168.75H862.976V6170.99H865.084V6172.55H862.976V6177.28C862.976 6178.13 863.446 6178.55 864.387 6178.55C864.625 6178.55 864.846 6178.54 865.05 6178.5C865.254 6178.47 865.356 6178.45 865.356 6178.45V6180.03C865.356 6180.03 865.214 6180.06 864.931 6180.1C864.659 6180.15 864.336 6180.17 863.962 6180.17ZM870.229 6180.17C869.322 6180.17 868.614 6179.89 868.104 6179.32C867.594 6178.75 867.339 6178 867.339 6177.06V6170.99H869.277V6176.82C869.277 6177.36 869.418 6177.79 869.702 6178.1C869.996 6178.39 870.393 6178.54 870.892 6178.54C871.379 6178.54 871.77 6178.41 872.065 6178.16C872.359 6177.91 872.569 6177.6 872.694 6177.21C872.83 6176.82 872.898 6176.41 872.898 6175.99V6170.99H874.836V6180H872.898V6178.71H872.796C872.705 6178.88 872.558 6179.08 872.354 6179.32C872.161 6179.55 871.889 6179.74 871.538 6179.91C871.198 6180.09 870.761 6180.17 870.229 6180.17ZM877.084 6180V6170.99H879.022V6172.18H879.09C879.26 6171.83 879.526 6171.52 879.889 6171.24C880.263 6170.96 880.801 6170.82 881.504 6170.82C881.719 6170.82 881.901 6170.83 882.048 6170.85C882.207 6170.88 882.286 6170.89 882.286 6170.89V6172.76C882.286 6172.76 882.201 6172.75 882.031 6172.72C881.861 6172.7 881.668 6172.69 881.453 6172.69C880.66 6172.69 880.053 6172.92 879.634 6173.37C879.226 6173.81 879.022 6174.53 879.022 6175.53V6180H877.084ZM887.609 6180.17C886.85 6180.17 886.192 6180.04 885.637 6179.78C885.093 6179.51 884.64 6179.15 884.277 6178.71C883.926 6178.25 883.659 6177.75 883.478 6177.19C883.308 6176.64 883.223 6176.07 883.223 6175.49C883.223 6174.93 883.308 6174.37 883.478 6173.81C883.648 6173.26 883.909 6172.75 884.26 6172.3C884.611 6171.85 885.059 6171.49 885.603 6171.23C886.147 6170.96 886.787 6170.82 887.524 6170.82C888.317 6170.82 889.014 6171 889.615 6171.36C890.227 6171.72 890.703 6172.24 891.043 6172.94C891.394 6173.64 891.57 6174.5 891.57 6175.53V6176.06H885.178C885.223 6176.75 885.456 6177.34 885.875 6177.84C886.294 6178.34 886.872 6178.59 887.609 6178.59C888.028 6178.59 888.374 6178.52 888.646 6178.38C888.918 6178.24 889.128 6178.07 889.275 6177.89C889.422 6177.71 889.524 6177.55 889.581 6177.42C889.649 6177.28 889.683 6177.21 889.683 6177.21H891.485C891.485 6177.21 891.457 6177.31 891.4 6177.52C891.343 6177.71 891.236 6177.95 891.077 6178.25C890.93 6178.54 890.714 6178.84 890.431 6179.13C890.148 6179.43 889.774 6179.68 889.309 6179.88C888.844 6180.07 888.278 6180.17 887.609 6180.17ZM885.195 6174.7H889.7C889.655 6173.9 889.417 6173.32 888.986 6172.94C888.567 6172.57 888.074 6172.38 887.507 6172.38C886.872 6172.38 886.345 6172.59 885.926 6173.01C885.507 6173.42 885.263 6173.98 885.195 6174.7ZM897.137 6180.17C896.423 6180.17 895.834 6180.07 895.369 6179.88C894.916 6179.68 894.553 6179.43 894.281 6179.15C894.009 6178.86 893.805 6178.56 893.669 6178.27C893.544 6177.97 893.465 6177.73 893.431 6177.53C893.397 6177.33 893.38 6177.23 893.38 6177.23H895.267C895.267 6177.23 895.284 6177.3 895.318 6177.45C895.363 6177.59 895.448 6177.74 895.573 6177.93C895.698 6178.11 895.89 6178.27 896.151 6178.42C896.412 6178.55 896.757 6178.62 897.188 6178.62C897.709 6178.62 898.095 6178.5 898.344 6178.27C898.605 6178.03 898.735 6177.76 898.735 6177.45C898.735 6177.16 898.627 6176.92 898.412 6176.75C898.197 6176.58 897.891 6176.45 897.494 6176.36L896.27 6176.09C895.794 6175.98 895.346 6175.82 894.927 6175.63C894.519 6175.43 894.185 6175.16 893.924 6174.83C893.675 6174.49 893.55 6174.06 893.55 6173.52C893.55 6172.74 893.845 6172.09 894.434 6171.58C895.023 6171.07 895.817 6170.82 896.814 6170.82C897.46 6170.82 897.993 6170.91 898.412 6171.09C898.843 6171.27 899.183 6171.5 899.432 6171.77C899.681 6172.03 899.868 6172.3 899.993 6172.57C900.118 6172.83 900.197 6173.05 900.231 6173.23C900.276 6173.4 900.299 6173.49 900.299 6173.49H898.48C898.48 6173.49 898.463 6173.43 898.429 6173.32C898.395 6173.21 898.321 6173.08 898.208 6172.93C898.095 6172.77 897.925 6172.63 897.698 6172.52C897.483 6172.4 897.188 6172.33 896.814 6172.33C896.304 6172.33 895.936 6172.45 895.709 6172.67C895.482 6172.9 895.369 6173.14 895.369 6173.4C895.369 6173.68 895.477 6173.89 895.692 6174.05C895.919 6174.2 896.213 6174.31 896.576 6174.39L897.783 6174.66C898.588 6174.84 899.251 6175.14 899.772 6175.56C900.293 6175.97 900.554 6176.57 900.554 6177.35C900.554 6177.87 900.418 6178.35 900.146 6178.78C899.885 6179.2 899.5 6179.54 898.99 6179.8C898.48 6180.05 897.862 6180.17 897.137 6180.17Z" fill="white"/>
<path d="M753.292 6180V6167.42H755.281V6172.72H760.908V6167.42H762.897V6180H760.908V6174.49H755.281V6180H753.292ZM769.66 6180.17C768.674 6180.17 767.841 6179.95 767.161 6179.51C766.493 6179.06 765.983 6178.49 765.631 6177.77C765.291 6177.06 765.121 6176.3 765.121 6175.49C765.121 6174.69 765.291 6173.93 765.631 6173.22C765.983 6172.5 766.493 6171.92 767.161 6171.48C767.841 6171.04 768.674 6170.82 769.66 6170.82C770.635 6170.82 771.457 6171.04 772.125 6171.48C772.805 6171.92 773.315 6172.5 773.655 6173.22C774.007 6173.93 774.182 6174.69 774.182 6175.49C774.182 6176.3 774.007 6177.06 773.655 6177.77C773.315 6178.49 772.805 6179.06 772.125 6179.51C771.457 6179.95 770.635 6180.17 769.66 6180.17ZM769.66 6178.52C770.216 6178.52 770.68 6178.38 771.054 6178.1C771.44 6177.81 771.729 6177.44 771.921 6176.97C772.125 6176.51 772.227 6176.02 772.227 6175.49C772.227 6174.96 772.125 6174.47 771.921 6174.02C771.729 6173.55 771.44 6173.18 771.054 6172.89C770.68 6172.61 770.216 6172.47 769.66 6172.47C769.105 6172.47 768.635 6172.61 768.249 6172.89C767.864 6173.18 767.575 6173.55 767.382 6174.02C767.19 6174.47 767.093 6174.96 767.093 6175.49C767.093 6176.02 767.19 6176.51 767.382 6176.97C767.575 6177.44 767.864 6177.81 768.249 6178.1C768.635 6178.38 769.105 6178.52 769.66 6178.52ZM776.248 6180V6170.99H778.186V6172.26H778.254C778.356 6172.08 778.503 6171.88 778.696 6171.65C778.9 6171.43 779.166 6171.23 779.495 6171.07C779.824 6170.9 780.237 6170.82 780.736 6170.82C781.405 6170.82 781.96 6170.98 782.402 6171.3C782.844 6171.61 783.173 6172.03 783.388 6172.55H783.422C783.66 6172.1 784.006 6171.7 784.459 6171.35C784.912 6171 785.513 6170.82 786.261 6170.82C786.896 6170.82 787.434 6170.97 787.876 6171.28C788.318 6171.57 788.647 6171.98 788.862 6172.49C789.089 6172.98 789.202 6173.55 789.202 6174.19V6180H787.264V6174.46C787.264 6173.87 787.122 6173.39 786.839 6173.01C786.556 6172.64 786.136 6172.45 785.581 6172.45C785.128 6172.45 784.759 6172.58 784.476 6172.83C784.204 6173.08 784.006 6173.39 783.881 6173.76C783.756 6174.12 783.694 6174.49 783.694 6174.87V6180H781.756V6174.46C781.756 6173.87 781.614 6173.39 781.331 6173.01C781.048 6172.64 780.628 6172.45 780.073 6172.45C779.62 6172.45 779.251 6172.58 778.968 6172.83C778.696 6173.08 778.498 6173.39 778.373 6173.76C778.248 6174.12 778.186 6174.49 778.186 6174.87V6180H776.248ZM795.638 6180.17C794.879 6180.17 794.222 6180.04 793.666 6179.78C793.122 6179.51 792.669 6179.15 792.306 6178.71C791.955 6178.25 791.689 6177.75 791.507 6177.19C791.337 6176.64 791.252 6176.07 791.252 6175.49C791.252 6174.93 791.337 6174.37 791.507 6173.81C791.677 6173.26 791.938 6172.75 792.289 6172.3C792.641 6171.85 793.088 6171.49 793.632 6171.23C794.176 6170.96 794.817 6170.82 795.553 6170.82C796.347 6170.82 797.044 6171 797.644 6171.36C798.256 6171.72 798.732 6172.24 799.072 6172.94C799.424 6173.64 799.599 6174.5 799.599 6175.53V6176.06H793.207C793.253 6176.75 793.485 6177.34 793.904 6177.84C794.324 6178.34 794.902 6178.59 795.638 6178.59C796.058 6178.59 796.403 6178.52 796.675 6178.38C796.947 6178.24 797.157 6178.07 797.304 6177.89C797.452 6177.71 797.554 6177.55 797.61 6177.42C797.678 6177.28 797.712 6177.21 797.712 6177.21H799.514C799.514 6177.21 799.486 6177.31 799.429 6177.52C799.373 6177.71 799.265 6177.95 799.106 6178.25C798.959 6178.54 798.744 6178.84 798.46 6179.13C798.177 6179.43 797.803 6179.68 797.338 6179.88C796.874 6180.07 796.307 6180.17 795.638 6180.17ZM793.224 6174.7H797.729C797.684 6173.9 797.446 6173.32 797.015 6172.94C796.596 6172.57 796.103 6172.38 795.536 6172.38C794.902 6172.38 794.375 6172.59 793.955 6173.01C793.536 6173.42 793.292 6173.98 793.224 6174.7Z" fill="white"/>
</g>
<defs>
<clipPath id="clip0_1010_6192">
<rect width="1918" height="6305" fill="white"/>
</clipPath>
</defs>
</svg>
