<svg width="121" height="32" viewBox="0 0 121 32" fill="none" xmlns="http://www.w3.org/2000/svg">
<path d="M28.0108 28.1013C28.0136 28.6474 27.9003 29.188 27.6784 29.687C27.4565 30.1861 27.1311 30.6323 26.7237 30.9961C26.3163 31.3599 25.8363 31.6329 25.3154 31.7971C24.7945 31.9613 24.2446 32.013 23.7023 31.9486C21.7279 31.6564 20.2811 29.9384 20.3293 27.9432V5.00412C20.2816 3.00677 21.7319 1.28779 23.7088 0.998812C24.2507 0.935358 24.7998 0.987676 25.32 1.1523C25.8401 1.31693 26.3193 1.59012 26.726 1.9538C27.1327 2.31748 27.4575 2.76335 27.679 3.26194C27.9004 3.76052 28.0135 4.30045 28.0108 4.846V28.1013Z" fill="#F9AB00"/>
<path d="M3.84073 24.3013C5.96194 24.3013 7.68147 26.021 7.68147 28.1421C7.68147 30.2633 5.96194 31.9828 3.84073 31.9828C1.71953 31.9828 0 30.2633 0 28.1422C0 26.0211 1.71953 24.3013 3.84073 24.3013ZM13.9465 12.6605C11.8153 12.7774 10.1617 14.5651 10.2112 16.699V27.0156C10.2112 29.8154 11.4432 31.5151 13.2482 31.8774C13.8078 31.9909 14.3856 31.9783 14.9398 31.8407C15.4939 31.7031 16.0105 31.4439 16.452 31.0818C16.8936 30.7198 17.249 30.264 17.4925 29.7475C17.7359 29.2311 17.8614 28.6669 17.8598 28.0959V16.5212C17.8607 16.0095 17.7598 15.5027 17.5628 15.0304C17.3658 14.5581 17.0768 14.1298 16.7125 13.7705C16.3482 13.4111 15.916 13.1279 15.4411 12.9373C14.9662 12.7468 14.4581 12.6526 13.9465 12.6605Z" fill="#E37400"/>
<path fill-rule="evenodd" clip-rule="evenodd" d="M51.3867 5.26853L53.6162 3.03906V7.29533H51.3867V5.26853ZM64.5609 5.26853L62.3314 3.03906V7.29533H64.5609V5.26853Z" fill="#7B7B7B"/>
<path d="M53.6172 3.03906H62.3324V5.16719H53.6172V3.03906Z" fill="#5A5A5A"/>
<path fill-rule="evenodd" clip-rule="evenodd" d="M70.5409 29.7943H45.4087C44.7637 29.7943 44.145 29.538 43.6889 29.0819C43.2328 28.6258 42.9766 28.0072 42.9766 27.3621V11.4759L47.1556 7.29688H68.794L72.9731 11.4759V27.3621C72.9731 28.0072 72.7168 28.6258 72.2607 29.0819C71.8046 29.538 71.186 29.7943 70.5409 29.7943Z" fill="#E6E7E8"/>
<path fill-rule="evenodd" clip-rule="evenodd" d="M42.9766 15.9107V11.4759L47.1556 7.29688H68.794L72.9731 11.4759V15.9107H42.9766Z" fill="#D0D1D2"/>
<path fill-rule="evenodd" clip-rule="evenodd" d="M46.4219 29.7958V12.5681C46.4219 12.2993 46.5286 12.0416 46.7187 11.8515C46.9087 11.6615 47.1665 11.5547 47.4353 11.5547H68.5139C68.7827 11.5547 69.0404 11.6615 69.2305 11.8515C69.4205 12.0416 69.5273 12.2993 69.5273 12.5681V29.7958H46.4219Z" fill="#458CF5"/>
<path d="M46.4219 15.9102H69.5273V29.7937H46.4219V15.9102Z" fill="white"/>
<path fill-rule="evenodd" clip-rule="evenodd" d="M62.6372 29.7936V25.6386L60.6104 23.6118L59.293 19.9636L60.205 17.6328L65.3733 22.8011L66.2854 18.9502L69.5283 22.1931V29.7936H62.6372Z" fill="#D2D3D4"/>
<path d="M47.9414 17.5312H55.6432V26.1451H47.9414V17.5312ZM47.9414 28.0706H57.8727V29.7933H47.9414V28.0706Z" fill="#D2D3D4"/>
<path fill-rule="evenodd" clip-rule="evenodd" d="M64.5623 26.559V29.7918H60.306V26.6049C59.4383 26.21 58.701 25.576 58.1806 24.7772C57.6602 23.9784 57.3781 23.0479 57.3675 22.0945C57.3569 21.1412 57.6181 20.2046 58.1205 19.3944C58.623 18.5842 59.3459 17.9339 60.2047 17.5197V22.2926L62.3328 23.61L64.5623 22.2926V17.5195C65.4125 17.9297 66.1299 18.5714 66.6318 19.3709C67.1338 20.1704 67.4001 21.0953 67.4001 22.0393C67.4001 22.9833 67.1338 23.9082 66.6318 24.7077C66.1299 25.5072 65.4125 26.1489 64.5623 26.559Z" fill="#505050"/>
<path fill-rule="evenodd" clip-rule="evenodd" d="M48.8028 12.668C48.9732 12.668 49.1397 12.7185 49.2814 12.8131C49.423 12.9078 49.5334 13.0423 49.5986 13.1997C49.6638 13.3571 49.6809 13.5303 49.6476 13.6974C49.6144 13.8645 49.5324 14.018 49.4119 14.1384C49.2914 14.2589 49.1379 14.341 48.9708 14.3742C48.8037 14.4074 48.6306 14.3904 48.4732 14.3252C48.3158 14.26 48.1812 14.1496 48.0866 14.0079C47.9919 13.8663 47.9414 13.6997 47.9414 13.5294C47.9414 13.3009 48.0322 13.0818 48.1937 12.9203C48.3552 12.7587 48.5743 12.668 48.8028 12.668ZM51.3363 12.668C51.5066 12.668 51.6732 12.7185 51.8148 12.8131C51.9565 12.9078 52.0669 13.0423 52.1321 13.1997C52.1973 13.3571 52.2144 13.5303 52.1811 13.6974C52.1479 13.8645 52.0658 14.018 51.9454 14.1384C51.8249 14.2589 51.6714 14.341 51.5043 14.3742C51.3372 14.4074 51.164 14.3904 51.0066 14.3252C50.8492 14.26 50.7147 14.1496 50.6201 14.0079C50.5254 13.8663 50.4749 13.6997 50.4749 13.5294C50.4749 13.3009 50.5656 13.0818 50.7272 12.9203C50.8887 12.7587 51.1078 12.668 51.3363 12.668Z" fill="#E6E7E8"/>
<path d="M89.1799 22.9873L100.001 4.46094C101.376 5.27019 108.308 9.1063 109.427 9.83576L98.6055 28.3633C97.422 29.9267 87.6805 25.36 89.1799 22.9862V22.9873Z" fill="#FBBC04"/>
<path d="M120.271 22.9878L109.449 4.46257C107.937 1.94488 104.678 1.02997 102.002 2.51698C99.3258 4.00399 98.511 7.2073 100.024 9.83738L110.845 28.3649C112.358 30.8814 115.617 31.7964 118.293 30.3093C120.852 28.8223 121.784 25.5055 120.271 22.9901V22.9878Z" fill="#4285F4"/>
<path d="M93.8618 31.0242C96.8619 31.0242 99.294 28.6525 99.294 25.7269C99.294 22.8014 96.8619 20.4297 93.8618 20.4297C90.8617 20.4297 88.4297 22.8014 88.4297 25.7269C88.4297 28.6525 90.8617 31.0242 93.8618 31.0242Z" fill="#34A853"/>
</svg>
