<svg width="49" height="49" viewBox="0 0 49 49" fill="none" xmlns="http://www.w3.org/2000/svg">
<path d="M34.2992 19.6008C34.2992 22.1999 33.2667 24.6926 31.4289 26.5304C29.591 28.3683 27.0983 29.4008 24.4992 29.4008C21.9001 29.4008 19.4074 28.3683 17.5696 26.5304C15.7317 24.6926 14.6992 22.1999 14.6992 19.6008C14.6992 17.0017 15.7317 14.509 17.5696 12.6711C19.4074 10.8333 21.9001 9.80078 24.4992 9.80078C27.0983 9.80078 29.591 10.8333 31.4289 12.6711C33.2667 14.509 34.2992 17.0017 34.2992 19.6008Z" fill="#DFDADA"/>
<path fill-rule="evenodd" clip-rule="evenodd" d="M23.5004 48.9804C10.4333 48.4561 0 37.6957 0 24.5C0 10.9686 10.9686 0 24.5 0C38.0314 0 49 10.9686 49 24.5C49 38.0314 38.0314 49 24.5 49H24.1644C23.9422 49 23.7209 48.9935 23.5004 48.9804ZM8.77835 39.9595C8.59517 39.4334 8.53282 38.8729 8.59592 38.3195C8.65903 37.766 8.84598 37.2339 9.14288 36.7626C9.43979 36.2913 9.83903 35.8929 10.311 35.597C10.7829 35.3011 11.3154 35.1153 11.869 35.0534C21.4191 33.9962 27.6397 34.0917 37.1432 35.0754C37.6975 35.1331 38.2314 35.3166 38.7041 35.6118C39.1768 35.9071 39.5759 36.3063 39.871 36.779C40.1661 37.2518 40.3494 37.7857 40.407 38.34C40.4646 38.8944 40.3949 39.4545 40.2033 39.9779C44.2765 35.857 46.5576 30.2942 46.55 24.5C46.55 12.3223 36.6777 2.45 24.5 2.45C12.3223 2.45 2.45 12.3223 2.45 24.5C2.45 30.5221 4.86448 35.9807 8.77835 39.9595Z" fill="#DFDADA"/>
</svg>
